/* XPM */
static char *result[] = {
/* columns rows colors chars-per-pixel */
"32 32 11 1 ",
"  c #B1627A",
". c #B0627A",
"X c #6E5E63",
"o c #8E606E",
"O c #8D606E",
"+ c #AE6279",
"@ c #8D606D",
"# c #605D5E",
"$ c #675E60",
"% c #795F67",
"& c #AF6279",
/* pixels */
"    .Xo                  OX.    ",
"    .Xo                  OX.    ",
"    .Xo                  OX.    ",
"    .Xo                  OX.    ",
"....+XO..................@X+....",
"XXXXX#$XXXXXXXXXXXXXXXXXX$#XXXXX",
"ooooO$%oooooooooooooooooo%$Ooooo",
"    .Xo                  OX.    ",
"    .Xo                  OX.    ",
"    .Xo                  OX.    ",
"    .Xo                  OX.    ",
"    .Xo                  OX.    ",
"    .Xo                  OX.    ",
"    .Xo                  OX.    ",
"    .Xo                  OX.    ",
"    .Xo                  OX.    ",
"    .Xo                  OX.    ",
"    .Xo                  OX.    ",
"    .Xo                  OX.    ",
"    .Xo                  OX.    ",
"    .Xo                  OX.    ",
"    .Xo                  OX.    ",
"    .Xo                  OX.    ",
"    .Xo                  OX.    ",
"    .Xo                  OX.    ",
"OOOO@$%OOOOOOOOOOOOOOOOOO%$@OOOO",
"XXXXX#$XXXXXXXXXXXXXXXXXX$#XXXXX",
"....+XO..................@X&....",
"    .Xo                  OX.    ",
"    .Xo                  OX.    ",
"    .Xo                  OX.    ",
"    .Xo                  OX.    "
};
