/* XPM */
static char *result[] = {
/* columns rows colors chars-per-pixel */
"50 50 119 2 ",
"   c #231F1F",
".  c #231F20",
"X  c #252122",
"o  c #292525",
"O  c #2F2A25",
"+  c #292728",
"@  c #2D2A2B",
"#  c #302720",
"$  c #342920",
"%  c #382B20",
"&  c #332E2B",
"*  c #382E28",
"=  c #373322",
"-  c #393424",
";  c #3E3924",
":  c #443221",
">  c #493421",
",  c #443E25",
"<  c #41362E",
"1  c #4B392A",
"2  c #533B22",
"3  c #5E3F22",
"4  c #4C4525",
"5  c #45412A",
"6  c #5D4022",
"7  c #524C25",
"8  c #555027",
"9  c #624121",
"0  c #6D4A20",
"q  c #754D23",
"w  c #7B4F20",
"e  c #605B27",
"r  c #7C5121",
"t  c #676027",
"y  c #67612B",
"u  c #69652D",
"i  c #79732B",
"p  c #BB731F",
"a  c #865622",
"s  c #8E5A21",
"d  c #925D22",
"f  c #876022",
"g  c #926222",
"h  c #996123",
"j  c #A36621",
"k  c #A66921",
"l  c #AD6F21",
"z  c #B16E21",
"x  c #A77425",
"c  c #AF7121",
"v  c #A27F26",
"b  c #AE7822",
"n  c #B17622",
"m  c #BE7420",
"M  c #CF7F1F",
"N  c #D27F1F",
"B  c #9A922D",
"V  c #A2992D",
"C  c #A89F2F",
"Z  c #A89D30",
"A  c #ABA22F",
"S  c #B3AA2F",
"D  c #BBB22F",
"F  c #D5821F",
"G  c #D9831F",
"H  c #F7941E",
"J  c #F8951F",
"K  c #F79A1F",
"L  c #F89B1F",
"P  c #D48120",
"I  c #F19120",
"U  c #F69E22",
"Y  c #F89D20",
"T  c #C9BE2F",
"R  c #D3B12B",
"E  c #C4BA31",
"W  c #E5A826",
"Q  c #F9A322",
"!  c #F8AB24",
"~  c #E8B629",
"^  c #EABA29",
"/  c #F9B927",
"(  c #D4CA2F",
")  c #CBC130",
"_  c #D4CA32",
"`  c #D9CE31",
"'  c #DED331",
"]  c #F0C62B",
"[  c #F8C129",
"{  c #F9CB2B",
"}  c #FAD32C",
"|  c #FADE2F",
" . c #E5DA32",
".. c #FADE30",
"X. c #FAE02F",
"o. c #F2E633",
"O. c #F9E230",
"+. c #F5EA34",
"@. c #FAEE32",
"#. c #F1E63B",
"$. c #F6EA3D",
"%. c #FAEE39",
"&. c #F3E94C",
"*. c #FAF042",
"=. c #FAF04D",
"-. c #FCF261",
";. c #FBF374",
":. c #FCF47A",
">. c #FCF586",
",. c #FDF68B",
"<. c #FCF791",
"1. c #FCF8A4",
"2. c #FDF8AB",
"3. c #FDFABE",
"4. c #FDFBCC",
"5. c #FEFCD2",
"6. c #FFFEF5",
"7. c #FFFFFC",
"8. c None",
/* pixels */
"8.8.8.8.8.8.8.8.8.8.8.8.8.8.8.8.8.8.8.8.8.8.8.8.8.8.8.8.8.8.8.8.8.8.8.8.8.8.8.8.8.8.8.8.8.8.8.8.8.8.",
"8.8.8.8.8.8.8.8.8.8.8.8.8.8.8.8.8.8.8.8.8.8.8.8.8.8.8.8.8.8.8.8.8.8.8.8.8.8.8.8.8.8.8.8.8.8.8.8.8.8.",
"8.8.8.8.8.8.8.8.8.8.8.8.8.8.8.8.8.8.8.8.8.8.8.o X X o X o X X o X X o X + X X 8.8.8.8.8.8.8.8.8.8.8.",
"8.8.8.8.8.8.8.8.8.8.8.8.8.8.8.8.8.8.8.8.8.8.8.X X . . . . . . . . . . . . . X X 8.8.8.8.8.8.8.8.8.8.",
"8.8.8.8.8.8.8.8.8.8.8.8.8.8.8.8.8.8.8.8.8.8.8.        X . . .   . . . . . . . X 8.8.8.8.8.8.8.8.8.8.",
"8.8.8.8.8.8.8.8.8.8.8.8.8.8.8.8.8.8.8.8.X o y +.+.+.+.+.+.+.+.+.+.+.+.+.E . X X 8.8.8.8.8.8.8.8.8.8.",
"8.8.8.8.8.8.8.8.8.8.8.8.8.8.8.8.8.8.8.8.X . e @.@.@.@.@.@.@.@.@.@.@.@.@.T . . X 8.8.8.8.8.8.8.8.8.8.",
"8.8.8.8.8.8.8.8.8.8.8.8.8.8.8.8.8.8.8.8.X . t @.@.@.@.@.@.@.@.@.@.@.@.@.T . . X 8.8.8.8.8.8.8.8.8.8.",
"8.8.8.8.8.8.8.8.8.8.8.8.8.8.8.8.8.X . ; o.o.+.@.@.1.7.6.>.@.@.@.@.@.@.@.T . . X 8.8.8.8.8.8.8.8.8.8.",
"8.8.8.8.8.8.8.8.8.8.8.8.8.8.8.8.8.X . ; @.@.@.@.@.2.7.7.,.@.@.@.@.%.%.@.T . . X 8.8.8.8.8.8.8.8.8.8.",
"8.8.8.8.8.8.8.8.8.8.8.8.8.8.8.8.8.X . ; @.@.*.-.-.1.4.4.:.@.@.@.@.#.) T A X . 8.8.8.8.8.8.8.8.8.8.8.",
"8.8.8.8.8.8.8.8.8.8.8.8.8.8.8.8.8.. . , @.@.;.7.7.<.%.%.@.@.@.+.%.( o o & 8.8.8.8.8.8.8.8.8.8.8.8.8.",
"8.8.8.8.8.8.8.8.8.8.8.8.8.8.8.8.8.. . ; @.@.;.7.7.<.@.@.@.@.%.%.@._ X . @ 8.8.8.8.8.8.8.8.8.8.8.8.8.",
"8.8.8.8.8.8.8.8.8.8.8.8.8.8.8.8.8.7 7 y -.-.>.5.5.:.@.@.@.%.$._ ) S o . & 8.8.8.8.8.8.8.8.8.8.8.8.8.",
"8.8.8.8.8.8.8.8.8.8.8.8.8.8.X . - o.o.&.7.7.3.%.%.%.@.@.@.@. .4 o O 8.8.8.8.8.8.8.8.8.8.8.8.8.8.8.8.",
"8.8.8.8.8.8.8.8.8.8.8.8.8.8.  . - @.@.=.7.7.3.@.@.@.@.@.@.@. .5 . o 8.8.8.8.8.8.8.8.8.8.8.8.8.8.8.8.",
"8.8.8.8.8.8.8.8.8.8.8.8.8.8.q w a @.@.*.2.2.,.@.@.@.@.o.D C B , X o 8.8.8.8.8.8.8.8.8.8.8.8.8.8.8.8.",
"8.8.8.8.8.8.8.8.8.8.8.X . # M H Q @.@.@.@.@.@.@.@.@.@. .8     8.8.8.8.8.8.8.8.8.8.8.8.8.8.8.8.8.8.8.",
"8.8.8.8.8.8.8.8.8.8.8.. . # N H Q @.@.@.@.@.@.@.@.@.@. .e   X 8.8.8.8.8.8.8.8.8.8.8.8.8.8.8.8.8.8.8.",
"8.8.8.8.8.8.8.8.8.+ - d h k ~ { { @.@.@.@.@.@.@.@.@.@.o.D B B 5 + + + + + + + + + @ + + @ 8.8.8.8.8.",
"8.8.8.8.8.8.8.8.+ . $ N J L | @.@.@.@.@.@.@.@.@.@.@.@.@.@.@. .5 . . . . . . .   . . . . X 8.8.8.8.8.",
"8.8.8.8.8.8.8.8.+   $ N J L | @.@.@.@.@.@.%.%.@.@.@.@.@.@.@. .4     . . . . .   . . . . X 8.8.8.8.8.",
"8.8.8.8.8.8.X X a k l ^ { { +.@.@.@.@.@.%.$.@.@.@.@.@.@.@.@.o.S C C C C C C C x k j . . o 8.8.8.8.8.",
"8.8.8.8.8.X . . z H L ..@.@.@.@.@.@.@.%.%.@.@.@.@.@.@.@.@.@.@.@.@.@.@.@.@.@.@.Q H H . . X 8.8.8.8.8.",
"8.8.8.8.8.X X . z H Y ..@.@.@.@.@.@.@.@.@.@.@.@.@.@.@.@.@.@.@.@.@.@.@.@.@.@.+.! H H X . o 8.8.8.8.8.",
"8.8.8.8.8.o . . % : : , , , , , 4 5 8 ' @.@.@.@.@.@.@.@.@.@.@.@.@.[ Q Q Q Q K 0 : : 8.8.8.8.8.8.8.8.",
"8.8.8.8.8.X . .   .   X . . . .     = ` @.@.@.@.@.@.@.@.@.@.@.@.@./ J J H H H 2 . . 8.8.8.8.8.8.8.8.",
"8.8.8.8.8.8.X .   X X X . X . X     = ` @.@.@.@.@.@.@.+.X.| X.| | W F F F F N 2 X . 8.8.8.8.8.8.8.8.",
"8.8.8.8.8.8.8.8.8.8.8.8.8.8.8.8.X   = ` @.@.@.@.@.@.@.} Q Q Q Q Q g > > > > > 8.8.8.8.8.8.8.8.8.8.8.",
"8.8.8.8.8.8.8.8.8.8.8.8.8.8.8.8.X   = ` @.@.@.@.@.@.@.{ H H H H J r     X X X 8.8.8.8.8.8.8.8.8.8.8.",
"8.8.8.8.8.8.8.8.8.8.8.8.8.8.8.8.5 5 8 ' @.@.@.@.@.X.X.^ F G G F F q o X X X o 8.8.8.8.8.8.8.8.8.8.8.",
"8.8.8.8.8.8.8.8.8.8.8.8.8.@     S  . .o.@.@.@.@.X.L L c % % % % % < 8.8.8.8.8.8.8.8.8.8.8.8.8.8.8.8.",
"8.8.8.8.8.8.8.8.8.8.8.8.8.@ X . D @.@.@.@.@.@.@.X.K H k X . .   . 8.8.8.8.8.8.8.8.8.8.8.8.8.8.8.8.8.",
"8.8.8.8.8.8.8.8.8.8.8.8.8.@ . . D @.@.@.@.@.} } ] p p s X X X X X 8.8.8.8.8.8.8.8.8.8.8.8.8.8.8.8.8.",
"8.8.8.8.8.8.8.8.8.8.8.8.8.@ . . D @.@.@.@.| Q H G     X 8.8.8.8.8.8.8.8.8.8.8.8.8.8.8.8.8.8.8.8.8.8.",
"8.8.8.8.8.8.8.8.8.8.8.8.8.@ . . D @.@.@.@.| Q H G     X 8.8.8.8.8.8.8.8.8.8.8.8.8.8.8.8.8.8.8.8.8.8.",
"8.8.8.8.8.8.8.8.8.8.8.8.8.u i i R { { { { ^ n j h O o 8.8.8.8.8.8.8.8.8.8.8.8.8.8.8.8.8.8.8.8.8.8.8.",
"8.8.8.8.8.8.8.8.8.8.X . X V @.@.! H J H H P > . o 8.8.8.8.8.8.8.8.8.8.8.8.8.8.8.8.8.8.8.8.8.8.8.8.8.",
"8.8.8.8.8.8.8.8.8.8.. .   V @.@.! H H H H N > . o 8.8.8.8.8.8.8.8.8.8.8.8.8.8.8.8.8.8.8.8.8.8.8.8.8.",
"8.8.8.8.8.8.8.8.8.8..     B [ [ b s s d s a 1 @ 8.8.8.8.8.8.8.8.8.8.8.8.8.8.8.8.8.8.8.8.8.8.8.8.8.8.",
"8.8.8.8.8.8.8.8.8.8.X     j H H 9 . . . . X 8.8.8.8.8.8.8.8.8.8.8.8.8.8.8.8.8.8.8.8.8.8.8.8.8.8.8.8.",
"8.8.8.8.8.8.8.8.8.8.X X . j H H 9 X . .   X 8.8.8.8.8.8.8.8.8.8.8.8.8.8.8.8.8.8.8.8.8.8.8.8.8.8.8.8.",
"8.8.8.8.8.8.8.8.o o r m m a 6 3 1 8.8.8.8.8.8.8.8.8.8.8.8.8.8.8.8.8.8.8.8.8.8.8.8.8.8.8.8.8.8.8.8.8.",
"8.8.8.8.8.8.8.8.X . s J H r     8.8.8.8.8.8.8.8.8.8.8.8.8.8.8.8.8.8.8.8.8.8.8.8.8.8.8.8.8.8.8.8.8.8.",
"8.8.8.8.8.8.8.8.. . s H H r . . 8.8.8.8.8.8.8.8.8.8.8.8.8.8.8.8.8.8.8.8.8.8.8.8.8.8.8.8.8.8.8.8.8.8.",
"8.8.8.8.8.8.8.8.X . : 9 9 2 8.8.8.8.8.8.8.8.8.8.8.8.8.8.8.8.8.8.8.8.8.8.8.8.8.8.8.8.8.8.8.8.8.8.8.8.",
"8.8.8.8.8.8.8.8.. . . . . 8.8.8.8.8.8.8.8.8.8.8.8.8.8.8.8.8.8.8.8.8.8.8.8.8.8.8.8.8.8.8.8.8.8.8.8.8.",
"8.8.8.8.8.8.8.8.X . . . . 8.8.8.8.8.8.8.8.8.8.8.8.8.8.8.8.8.8.8.8.8.8.8.8.8.8.8.8.8.8.8.8.8.8.8.8.8.",
"8.8.8.8.8.8.8.8.8.8.8.8.8.8.8.8.8.8.8.8.8.8.8.8.8.8.8.8.8.8.8.8.8.8.8.8.8.8.8.8.8.8.8.8.8.8.8.8.8.8.",
"8.8.8.8.8.8.8.8.8.8.8.8.8.8.8.8.8.8.8.8.8.8.8.8.8.8.8.8.8.8.8.8.8.8.8.8.8.8.8.8.8.8.8.8.8.8.8.8.8.8."
};
