/* XPM */
static char *result[] = {
/* columns rows colors chars-per-pixel */
"32 32 59 1 ",
"  c #FFEC00",
". c #FFEC01",
"X c #FFEC02",
"o c #FFEC03",
"O c #FFEC04",
"+ c #FFEC05",
"@ c #FFEC06",
"# c #FFEC07",
"$ c #FFED07",
"% c #FFED08",
"& c #FFED09",
"* c #FFEC0A",
"= c #FFED0A",
"- c #FFED0B",
"; c #FFED0C",
": c #FFEC0D",
"> c #FFED0D",
", c #FFED0E",
"< c #FFED0F",
"1 c #FFED10",
"2 c #FFED11",
"3 c #FFED12",
"4 c #FFED13",
"5 c #FFED14",
"6 c #FFED15",
"7 c #FFEE14",
"8 c #FFEE15",
"9 c #FFEE16",
"0 c #FFEE18",
"q c #FFEE19",
"w c #FFED1A",
"e c #FFEE1A",
"r c #FFEE1B",
"t c #FFEE1C",
"y c #FFEE1E",
"u c #FFEE20",
"i c #FFEE21",
"p c #FFEF22",
"a c #FFEF24",
"s c #FFEF25",
"d c #FFEF26",
"f c #FFEF27",
"g c #FFEF28",
"h c #FFEF29",
"j c #FFEF2B",
"k c #FFEF2C",
"l c #FFEF2E",
"z c #FFF02F",
"x c #FFF032",
"c c #FFF033",
"v c #FFF034",
"b c #FFF036",
"n c #FFF039",
"m c #FFF13A",
"M c #FFF13D",
"N c #FFF140",
"B c #FFF147",
"V c #FFF24F",
"C c None",
/* pixels */
"CCCCCCCCCCCCCCCCCCCCCCCCCCCCCCCC",
"CCCCCCCCCCCCCCCCCCCCCCCCCCCCCCCC",
"CCCCCCCCCCt-O          <xCCCCCCC",
"CCCCCCCCNl6=%#@@###@+OO2zNCCCCCC",
"CCCCCCCve;@%253356641>-7jbCCCCCC",
"CCCCCCva-O-4ryq0rtte62,9hcCCCCCC",
"CCCCCNe-O-axCCCCCCCCCCCCCCCCCCCC",
"CCCCCc,o&9xBCCCCCCCCCCCCCCCCCCCC",
"CCCCku=&rfCCCCCCCCCCCCCCCCCCCCCC",
"CCCCw5#=pxCCCCCCCCCCCCCCCCCCCCCC",
"CCCC:*oOCCCCCCCCCCCCCCCCCCCCCCCC",
"CCCC+O. CCCCCCCCCCCCCCCCCCCCCCCC",
"CCCCX.  CCCCCCCCCCCCCCCCCCCCCCCC",
"CCCC    CCCCCCCCCCCCCCCCCCCCCCCC",
"CCCC    CCCCCCCCCCCCCCCCCCCCCCCC",
"CCCC    CCCCCCCCCCCCCCCCCCCCCCCC",
"CCCC    CCCCCCCCCCCCCCCCCCCCCCCC",
"CCCC    CCCCCCCCCCCCCCCCCCCCCCCC",
"CCCC    CCCCCCCCCCCCCCCCCCCCCCCC",
"CCCC    CCCCCCCCCCCCCCCCCCCCCCCC",
"CCCC    CCCCCCCCCCCCCCCCCCCCCCCC",
"CCCC;&oXCCCCCCCCCCCCCCCCCCCCCCCC",
"CCCCsr&@4tCCCCCCCCCCCCCCCCCCCCCC",
"CCCCng;+19CCCCCCCCCCCCCCCCCCCCCC",
"CCCCCx;X+>ylCCCCCCCCCCCCCCCCCCCC",
"CCCCCCq>O$9uhCCCCCCCCCCCCCCCCCCC",
"CCCCCCNj>X$&&=>18953<-O;dcCCCCCC",
"CCCCCCCNq;;&oo%;11<>-=%4kmCCCCCC",
"CCCCCCCCCxgr&.oO+++OO%2iMVCCCCCC",
"CCCCCCCCCCns;        #6gBCCCCCCC",
"CCCCCCCCCCCCCCCCCCCCCCCCCCCCCCCC",
"CCCCCCCCCCCCCCCCCCCCCCCCCCCCCCCC"
};
