/* XPM */
static char *result[] = {
/* columns rows colors chars-per-pixel */
"50 50 223 2 ",
"   c black",
".  c #010100",
"X  c #020100",
"o  c #030201",
"O  c #020202",
"+  c #050302",
"@  c #060302",
"#  c #040404",
"$  c gray2",
"%  c #060504",
"&  c #060606",
"*  c #0B0602",
"=  c #0D0602",
"-  c #0C0703",
";  c #0E0702",
":  c #0F0702",
">  c #090704",
",  c #0C0704",
"<  c #0D0704",
"1  c #0F0803",
"2  c #0F0903",
"3  c #0A0807",
"4  c #0D0805",
"5  c #0E0805",
"6  c #0E0905",
"7  c #0F0B07",
"8  c gray3",
"9  c #090909",
"0  c gray4",
"q  c #0B0B0B",
"w  c #0C0C0C",
"e  c gray5",
"r  c #0E0E0E",
"t  c gray6",
"y  c #100903",
"u  c #110903",
"i  c #130A03",
"p  c #140A03",
"a  c #100904",
"s  c #100A05",
"d  c #110B06",
"f  c #140B04",
"g  c #110C06",
"h  c #110C07",
"j  c #120C07",
"k  c #180C04",
"l  c #1E0F04",
"z  c #140E09",
"x  c #1F1004",
"c  c #1F1005",
"v  c #1B1109",
"b  c #1B140D",
"n  c #1F150E",
"m  c #101010",
"M  c #111111",
"N  c gray7",
"B  c #131313",
"V  c gray8",
"C  c #151515",
"Z  c #161616",
"A  c gray9",
"S  c #1F1915",
"D  c #181818",
"F  c #191919",
"G  c gray10",
"H  c #1B1A1A",
"J  c #1B1B1B",
"K  c gray11",
"L  c #1D1D1D",
"P  c #1E1E1E",
"I  c gray12",
"U  c #201004",
"Y  c #201005",
"T  c #231205",
"R  c #221307",
"E  c #241205",
"W  c #291406",
"Q  c #2C1606",
"!  c #241408",
"~  c #261A0F",
"^  c #2B180B",
"/  c #2D1C0E",
"(  c #2D1D0E",
")  c #301807",
"_  c #3A1D08",
"`  c #3E1F09",
"'  c #291D11",
"]  c #221C18",
"[  c #33251A",
"{  c #202020",
"}  c gray13",
"|  c #222222",
" . c #232323",
".. c gray14",
"X. c #252525",
"o. c gray15",
"O. c #272727",
"+. c #282828",
"@. c gray16",
"#. c #2A2A2A",
"$. c #2B2A2A",
"%. c gray17",
"&. c #2C2C2C",
"*. c #2D2D2D",
"=. c gray18",
"-. c #2F2F2F",
";. c gray19",
":. c #313131",
">. c #323232",
",. c gray20",
"<. c #343434",
"1. c #353535",
"2. c gray21",
"3. c #373737",
"4. c gray22",
"5. c #393939",
"6. c #3A3A3A",
"7. c gray23",
"8. c #3C3C3C",
"9. c gray24",
"0. c #3E3E3E",
"q. c #3F3F3F",
"w. c #422109",
"e. c #48240A",
"r. c #4A250A",
"t. c #4F270B",
"y. c #4A280F",
"u. c #51280B",
"i. c #53290C",
"p. c #542A0C",
"a. c #592D0D",
"s. c #5C2E0D",
"d. c #552D10",
"f. c #573012",
"g. c #5F3110",
"h. c #5A3517",
"j. c #61300D",
"k. c #63310E",
"l. c #67330E",
"z. c #6E370F",
"x. c #683712",
"c. c #703911",
"v. c #723910",
"b. c #723911",
"n. c #743A10",
"m. c #763B10",
"M. c #793C11",
"N. c #7C3E11",
"B. c #7D3E11",
"V. c #7E3F11",
"C. c #403326",
"Z. c #5A3E23",
"A. c #593E24",
"S. c #5F4023",
"D. c #5C4024",
"F. c #584029",
"G. c #6F4B29",
"H. c #7E5028",
"J. c #414141",
"K. c #434343",
"L. c #474442",
"P. c gray27",
"I. c gray28",
"U. c #484848",
"Y. c #494949",
"T. c gray29",
"R. c #4B4B4B",
"E. c #4C4C4C",
"W. c gray30",
"Q. c #4E4E4E",
"!. c gray31",
"~. c #505050",
"^. c #515151",
"/. c gray32",
"(. c gray33",
"). c #565656",
"_. c gray34",
"`. c gray35",
"'. c #5A5A5A",
"]. c gray36",
"[. c gray37",
"{. c #606060",
"}. c gray38",
"|. c #626262",
" X c gray39",
".X c #646464",
"XX c #656565",
"oX c gray40",
"OX c #676767",
"+X c #686868",
"@X c DimGray",
"#X c #6F6F6F",
"$X c gray44",
"%X c #814012",
"&X c #844112",
"*X c #854212",
"=X c #884313",
"-X c #8A4413",
";X c SaddleBrown",
":X c #83481C",
">X c #8D4918",
",X c #8E4E1E",
"<X c #91501E",
"1X c #91501F",
"2X c #854F24",
"3X c #815229",
"4X c #89572C",
"5X c #945726",
"6X c #955827",
"7X c #925D2F",
"8X c #9A6030",
"9X c #9A6231",
"0X c #92673B",
"qX c #95693D",
"wX c #9E6A3A",
"eX c #9F6B3B",
"rX c #9C6C3D",
"tX c #A06E3E",
"yX c #A07141",
"uX c #A37242",
"iX c gray53",
"pX c #898989",
"aX c None",
/* pixels */
"aXaXaXaXaXaXaXaXaXaXaXaXaXaXaXaXaXaXaXaXaXaXaXaXaXaXaXaXaXaXaXaXaXaXaXaXaXaXaXaXaXaXaXaXaXaXaXaXaXaX",
"aXaXaXaXaXaXaXaXaXaXaXaXaXaXaXaXaXaXaXaXaXaXaXaXaXaXaXaXaXaXaXaXaXaXaXaXaXaXaXaXaXaXaXaXaXaXaXaXaXaX",
"aXaXaXaXaXaXaXaXaXaXaXaXaXaXaXaXaXaXaXaXaXC $ m Z Z N # C aXaXaXaXaXaXaXaXaXaXaXaXaXaXaXaXaXaXaXaXaX",
"aXaXaXaXaXaXaXaXaXaXaXaXaXaXaXaXaX  q X.%.}.1.7.).'.0.:. X=.X.r   aXaXaXaXaXaXaXaXaXaXaXaXaXaXaXaXaX",
"aXaXaXaXaXaXaXaXaXaXaXaXaXaXaX..&.&.:.J.@X@X@X0.1.2.4.@X@X@XP.,.&.&.O.aXaXaXaXaXaXaXaXaXaXaXaXaXaXaX",
"aXaXaXaXaXaXaXaXaXaXaXaXaXaX-._.@X@X`.,.3.3.3.3.K A 3.3.3.3.,.(.@X@X].>.aXaXaXaXaXaXaXaXaXaXaXaXaXaX",
"aXaXaXaXaXaXaXaXaXaXaXaX    ].@X@X@X_.O.> A.f.p.p.h.S.p.u.*  .^.@X@X'.%.8.e aXaXaXaXaXaXaXaXaXaXaXaX",
"aXaXaXaXaXaXaXaXaXaXaXC U.T.X.~.0.{ [ j.x.rX<X;X;X6XwX;X-Xl.G.C.{ { #.R.OXQ.J aXaXaXaXaXaXaXaXaXaXaX",
"aXaXaXaXaXaXaXaXaXaXaXD XX@X_.$.F.H.M.;X>XtX<X;X;X6XwX;X;X;XeX2Xv.t.H +X@X+XP aXaXaXaXaXaXaXaXaXaXaX",
"aXaXaXaXaXaXaXaXaXaX..[.@X@XG d.7X9X;X;X>XtX<X;X;X6XwX;X;X;XeX5X;X*Xg.m @X.X{ O aXaXaXaXaXaXaXaXaXaX",
"aXaXaXaXaXaXaXaXaXaX{ ].OX'.n k.8X9X;X;X>XtX<X;X;X6XwX;X;X;XeX5X;X;Xc.b (...E.+.  aXaXaXaXaXaXaXaXaX",
"aXaXaXaXaXaXaXaXaXN G #.R.t b.=X8X9X;X;X>XtX<X;X;X6XwX;X;X;XeX5X;X;X,XqXr ).OX6.V aXaXaXaXaXaXaXaXaX",
"aXaXaXaXaXaXaXaX  ;.oX^.3 E V.;X8X9X;X;X>XtX<X;X;X6XwX;X;X;XeX5X;X;X1XyX^ L.}.OX6.  aXaXaXaXaXaXaXaX",
"aXaXaXaXaXaXaXaX  ;.@X/.6 N.;X;X8X9X;X;X>XtX<X;X;X6XwX;X;X;XeX5X;X;X1XuX%Xf E.@X7.  aXaXaXaXaXaXaXaX",
"aXaXaXaXaXaXaXaX  ;.@X/.6 N.;X;X8X9X;X;X>XtX<X;X;X6XwX;X;X;XeX5X;X;X1XuX%Xf E.@X7.  aXaXaXaXaXaXaXaX",
"aXaXaXaXaXaXaXaX  F 2.#.- N.;X;X8X9X;X;X>XtX<X;X;X6XwX;X;X;XeX5X;X;X1XuX%Xi O.2.P   aXaXaXaXaXaXaXaX",
"aXaXaXaXaXaXaXaX  } U.5.< N.;X;X8X9X;X;X>XtX<X;X;X6XwX;X;X;XeX5X;X;X1XuX%Xp <.U.+.  aXaXaXaXaXaXaXaX",
"aXaXaXaXaXaXaXaX  ;.@X/.6 N.;X;X8X9X;X;X>XtX<X;X;X6XwX;X;X;XeX5X;X;X1XuX%Xf E.@X7.  aXaXaXaXaXaXaXaX",
"aXaXaXaXaXaXaXaX  ;.@X/.6 N.;X;X8X9X;X;X>XtX<X;X;X6XwX;X;X;XeX5X;X;X1XuX%Xf E.@X7.  aXaXaXaXaXaXaXaX",
"aXaXaXaXaXaXaXaX  ;.@X/.6 N.;X;X8X9X;X;X>XtX<X;X;X6XwX;X;X;XeX5Xr.: a j ; o E.@X7.  aXaXaXaXaXaXaXaX",
"aXaXaXaXaXaXaXaX  0 Z M * N.;X;X8X9X;X;X>XtX<X;X;X6XwX;X;X;XeX5Xw.=.#X# iXV m Z w   aXaXaXaXaXaXaXaX",
"aXaXaXaXaXaXaXaX  ;.@X/.6 N.;X;X8X9X;X;X>XtX<X;X;X6XwX;X;X;XeX5Xi.U R ~ l + E.@X7.  aXaXaXaXaXaXaXaX",
"aXaXaXaXaXaXaXaX  ;.@X/.6 N.;X;X8X9X;X;X>XtX<X;X;X6XwX;X;X;XeX5X;X;X1XuX%Xf E.@X7.  aXaXaXaXaXaXaXaX",
"aXaXaXaXaXaXaXaX  ;.@X/.6 N.;X;X8X9X;X;X>XtX<X;X;X6XwX;X;X;XeX5X;X;X1XuX%Xf E.@X7.  aXaXaXaXaXaXaXaX",
"aXaXaXaXaXaXaXaX  K 8.-., N.;X;X8X9X;X;X>XtX<X;X;X6XwX;X;X;XeX5X;X;X1XuX%Xi %.8.|   aXaXaXaXaXaXaXaX",
"aXaXaXaXaXaXaXaX  I K.1., N.;X;X8X9X;X;X>XtX<X;X;X6XwX;X;X;XeX5X;X;X1XuX%Xp :.K.o.  aXaXaXaXaXaXaXaX",
"aXaXaXaXaXaXaXaX  ;.@X/.6 N.;Xr./ ( W ) >XtX<X;X;X6XwX;X;X;XeX5X;X;X1XuX%Xf E.@X7.  aXaXaXaXaXaXaXaX",
"aXaXaXaXaXaXaXaX  ;.@X/.6 N.;Xm.Q   x z.>XtX<X;X;X6XwX;X;X;XeX5X;X;X1XuX%Xf E.@X7.  aXaXaXaXaXaXaXaX",
"aXaXaXaXaXaXaXaX  =..X!.5 N.;X` Z.3Xa.c >XtX<X;X;X6XwX;X;X;XeX5X;X;X1XuX%Xf Y..X4.  aXaXaXaXaXaXaXaX",
"aXaXaXaXaXaXaXaX  q D B * N.;X_ D.4Xs.k >XtX<X;X;X6XwX;X;X;XeX5X;X;X1XuX%Xi N D r   aXaXaXaXaXaXaXaX",
"aXaXaXaXaXaXaXaX  ;.@X/.6 N.;X;Xy.v _ ;X>XtX<X;X;X6XwX;X;X;XeX5X;X;X1XuX%Xf E.@X7.  aXaXaXaXaXaXaXaX",
"aXaXaXaXaXaXaXaX  ;.@X/.6 N.;X;X8X9X;X;X>XtX<X;X;X6XwX;X;X;XeX5X;X;X1XuX%Xf E.@X7.  aXaXaXaXaXaXaXaX",
"aXaXaXaXaXaXaXaX  ;.@X/.6 N.;X;X8X9X;X;X>XtX<X;X;X6XwX;X;X;XeX5X;X;X1XuX%Xf E.@X7.  aXaXaXaXaXaXaXaX",
"aXaXaXaXaXaXaXaX  K 0.;., N.;X;X8X9X;X;X>XtX<X;X;X6XwX;X;X;XeX5X;X;X1XuX%Xi &.0.|   aXaXaXaXaXaXaXaX",
"aXaXaXaXaXaXaXaX  K 9.;., N.;X;X8X9X;X;X>XtX<X;X;X6XwX;X;X;XeX5X;X;X1XuX%Xi &.9.|   aXaXaXaXaXaXaXaX",
"aXaXaXaXaXaXaXaX  ;.@X/.6 N.;X;X8X9X;X;X>XtX<X;X;X6XwX;X;X;XeX5X;X;X1XuX%Xf E.@X7.  aXaXaXaXaXaXaXaX",
"aXaXaXaXaXaXaXaX  ;.@X/.6 N.;X;X8X9X;X;X>XtX<X;X;X6XwX;X;X;XeX5X;X;X1XuX%Xf E.@X7.  aXaXaXaXaXaXaXaX",
"aXaXaXaXaXaXaXaX  *.|.W.4 N.;X;X8X9X;X;X>XtX<X;X;X6XwX;X;X;XeX5X;X;X1XuX%Xf I.|.3.  aXaXaXaXaXaXaXaX",
"aXaXaXaXaXaXaXaX  w G C * N.;X;X8X9X;X;X>XtX<X;X;X6XwX;X;X;XeX5X&XB.:X0Xn.u B G t   aXaXaXaXaXaXaXaX",
"aXaXaXaXaXaXaXaX  &.{.R.4 N.;X;X8X9X;X;X>XtX<X;X;X6XwX;X;X;XeX5Xe.z S 7 ] % P.{.2.  aXaXaXaXaXaXaXaX",
"aXaXaXaXaXaXaXaX  ;.@X/.6 N.;X;X8X9X;X;X>XtX<X;X;X6XwX;X;X;XeX5Xw.-.$X# pXC E.@X7.  aXaXaXaXaXaXaXaX",
"aXaXaXaXaXaXaXaX  ;.@X/.6 N.;X;X8X9X;X;X>XtX<X;X;X6XwX;X;X;XeX5Xp.T ! ' Y @ E.@X7.  aXaXaXaXaXaXaXaX",
"aXaXaXaXaXaXaXaX  L q.:., N.;X;X8X9X;X;X>XtX<X;X;X6XwX;X;X;XeX5X;X;X1XuX%Xi *.q. .  aXaXaXaXaXaXaXaX",
"aXaXaXaXaXaXaXaX  D 1.@.- N.;X;X8X9X;X;X>XtX<X;X;X6XwX;X;X;XeX5X;X;X1XuX%Xi o.1.L   aXaXaXaXaXaXaXaX",
"aXaXaXaXaXaXaXaX  ;.@X/.6 N.;X;X8X9X;X;X>XtX<X;X;X6XwX;X;X;XeX5X;X;X1XuX%Xf E.@X7.  aXaXaXaXaXaXaXaX",
"aXaXaXaXaXaXaXaX  ;.@X/.6 N.;X;X8X9X;X;X>XtX<X;X;X6XwX;X;X;XeX5X;X;X1XuX%Xf E.@X7.  aXaXaXaXaXaXaXaX",
"aXaXaXaXaXaXaXaX  ;.@X/.6 N.;X;X8X9X;X;X>XtX<X;X;X6XwX;X;X;XeX5X;X;X1XuX%Xf E.@X7.  aXaXaXaXaXaXaXaX",
"aXaXaXaXaXaXaXaX  $ q 9 . = : : s s : : 1 h 2 : : a d : : : g a : : y h ; X 8 q &   aXaXaXaXaXaXaXaX",
"aXaXaXaXaXaXaXaXaXaXaXaXaXaXaXaXaXaXaXaXaXaXaXaXaXaXaXaXaXaXaXaXaXaXaXaXaXaXaXaXaXaXaXaXaXaXaXaXaXaX",
"aXaXaXaXaXaXaXaXaXaXaXaXaXaXaXaXaXaXaXaXaXaXaXaXaXaXaXaXaXaXaXaXaXaXaXaXaXaXaXaXaXaXaXaXaXaXaXaXaXaX"
};
