/* XPM */
static char *_36917f2d1ce471ab793fd80f6329437QWXNzW3WDoFZ8Uzh[] = {
/* columns rows colors chars-per-pixel */
"72 72 52 1 ",
"  c black",
". c #000707",
"X c #000F0F",
"o c #001616",
"O c #002727",
"+ c #002B2B",
"@ c #002C2C",
"# c #002E2E",
"$ c #002F2F",
"% c #00302F",
"& c #003030",
"* c #004B4B",
"= c #004F4F",
"- c #005252",
"; c #005757",
": c #005858",
"> c #005A5A",
", c #007B7B",
"< c #007F7F",
"1 c #008080",
"2 c #008181",
"3 c #008787",
"4 c #008788",
"5 c #008888",
"6 c #008A8A",
"7 c #008C8C",
"8 c #008F8F",
"9 c #009191",
"0 c #009999",
"q c #009B9B",
"w c #009F9F",
"e c #00A3A3",
"r c #00A4A4",
"t c #00A7A7",
"y c #00A8A7",
"u c #00A7A8",
"i c #00ABAB",
"p c #00ACAB",
"a c #00ABAC",
"s c #00AFAF",
"d c #00B0B0",
"f c #00B3B3",
"g c #00B4B3",
"h c #00B3B4",
"j c #00B6B6",
"k c #00B8B7",
"l c #00B7B8",
"z c #00BBBA",
"x c #00BABB",
"c c #00BCBB",
"v c #00BBBC",
"b c #00BFBF",
/* pixels */
"                                                                        ",
"                                                                        ",
"                                                                        ",
"   bbbbbbbbbbbbbbbbbbbbbbbbbbbbbbbbbbbbbbbbcbbbxbxcxxxxxxjkjjjjjjfjf    ",
"   bbbbbbbbbbbbbbbbbbbbbbbbbbbbbbbbbbbbbbbxbbcbcxxckxkxjxkjjjjjhfffj    ",
"   bbbbbbbbbbbbbbbbbbbbbbbbbbbbbbbbbbbbbbcbxxcxccxxckxjxjjjjjjjfffhj    ",
"   bbbbbbbbbbbbbbbbbbbbbbbbbbbbbbbbbbxbbxbxbcbccxxxkxkxkjjjjjgffffff    ",
"   bbbbbbbbbbbbbbbbbbbbbbbbbbbbbbbbbbbbxbcbcxxckxkkxkkjjjjjfjjffffff    ",
"   bbbbbbbbbbbbbbbbbbbbbbbbbbbbbbbbbbxbcbccbcxxxxkxjxjjjjjjhfffffsff    ",
"   bbbbbbbbbbbbbbbbbbbbbbbbbbbbbbbbvbbxbxxcxccxxxxkxjjjjgjfjhfffffsf    ",
"   bbbbbbbbbbbbbbbbbbbbbbbbbbbbbbbbbbcbxccxcxxxkkjkjjjjgjhgfffffssss    ",
"   bbbbbbbbbbbbbbbbbbbbbbbbbbbbbxbbxxbxbbcxxkxxxjxjxjjjjjfffffsffsff    ",
"   bbbbbbbbbbbbbbbbbbbbbbbbbbbbbbbbbxxxcxxxkckxjkkjjjgjfffffffssssss    ",
"   bbbbbbbbbbq&&&&&&&&&&#&&&&&#&########=xxxxxjxkjjjjjjfffsfssfssssf    ",
"   bbbbbbbbbb&                           6xxkxjljjjjjgfffffsfsssssss    ",
"   bbbbbbbbbb&                           6xkkkjkjjjjffffffffssssssss    ",
"   bbbbbbbbbb&  bbbbbbbbbbcbcbxbbcccxb:  6kxxjjjjjggffffssffssssasss    ",
"   bbbbbbbbbb&  bbbbbbbbbbbbbxbbcxbcxb>  6kkjjjjjjjjffffsfssssissssi    ",
"   bbbbbbbbbb&  bbbbbbbbbbbbbcbcbbccxx:  6xjjjjjjjfffffsffsssssssiis    ",
"   bbbbbbbbbb&  bbbbbbbbbbxbxbxxxxcxxk:  3kkjjjgffffffsfsssssssiisii    ",
"   bbbbbbbbbb&  bbbbbbbbbbxcbxccxxxxxk:  4jjjjjjfffffsfsssssissiiias    ",
"   bbbbbbbbbb&  bbbbbbbbbccbxbcxxxxkkx:  3jjgjghgffffsfssssisisiiisi    ",
"   bbbbbbbbbb&  bbbbbxbbxbcbccccxxxkxj:  3jjjgfffffssfssssssisiiiiis    ",
"   bbbbbbbbbb&  bbbbbbbxbcbxxbxckckxjx3..ijjjgffffffssssssssiiiiiiia    ",
"   bbbbbbbbbb&  bbbbbbxcbcbxxcxcckxjkjxjjjfgjffffjfsssssissaiiiiiiyi    ",
"   bbbbbbbbbb&  bbcbbxcbxccxcxxkkxkxjkjjjhjfffq..6sfsssisipisiiiiiii    ",
"   bbbbbbbbbb&  bbbbxbcbxbxccxkxxxkjjjjgjjffff2  .6ssssssaiiiiiiitii    ",
"   bbbbbbbbbb&  cbbxbbccxcxxkxxxkkkjjjjjffffffto  .6ssssiisiiitiyiti    ",
"   bbbbbbbbbb&  bbbxbccccxcxkxxkxkjjjjjgfffffsfto  .6sspiiiiiiiyttit    ",
"   bbbbbbbbbb&  bxcbcxcxcxxcxkjxjjjjjgjgfffssfsseo  .6iiiiiiiutiitui    ",
"   bbbbbbbbbb#  xbxcbcbxxkxkkxkjjjjjjgfgfffffsssseo  .6iaiiiitittttt    ",
"   bbbbbbbbbb#  bcbxxxxxxxkxkkjkjjjfjjffffssfssssseo  Xwiiuiiittiyti    ",
"   bbbbbbbbbb#  bcbccccxxkxjxjjjjjjjffffffssssssssiw.  owiiyituitttt    ",
"   bbbbbbbcbb#  xxxcxkxxkxkxjkjjjgjjffffsffsssssassa6.  owiutttttttt    ",
"   bbbbbbbcbb#  cbcxcxxkxkkjjjjgj9322222222<<<<<,<,,,;   owititttttt    ",
"   bbbbbbbbbx#  cxcckxkxkkjxjjjj8                         &tttyttttt    ",
"   bbbbbxbbxb#  xcxxxkkkxkjjjjjj9                         &ttttttttt    ",
"   bbbbbbxcbx+  cxxkxjkxjjjjjggff8----=-=======*=****O   owttttttttt    ",
"   bbbbcbbbxb#  xcxxkxxjkkkjjjjgfgfffsffssssssiiiiii3.  owtiuttttttt    ",
"   bbbbbbcbbb#  cxccxxxkxjxjjjjghjffffsffsssissssiiw.  owuttityttttt    ",
"   bbbbbbbbbx#  ccxxxxxkkkxkkjjjjgjffffffssssssiiseo  Xwittityittttt    ",
"   bbbbbbbbvb#  xbbccxxxxkkkkjjjjgjfffffsffsssssswo  .3iiiittttttttt    ",
"   bbbbbbbbbb#  bxcxcckcxkxkxkjjjjjfgfffffsssssseo  .6piiiiiittiitit    ",
"   bbbbbbbbbb#  cbbxccxcxxkxjkxjjjhjhfffffsffsseo  .3iaiiyittitttttt    ",
"   bbbbbbbbbb%  bcbxcbxxcxxkxkkkjjjjjhfffffsfseo  .6iiiiiiuiittyuitt    ",
"   bbbbbbbbbb%  bbcbccccxxkxxkxkkjjjjjjjfffffs2  .6ssssiiiiiiiiiutui    ",
"   bbbbbbbbbb&  cbxcbccbxcxcxkxkxjjjjhjhfffffs0..6ssspissiiiiiititii    ",
"   bbbbbbbbbb&  vbbbxbcxccckxxkxjkxjjjjhffffffsffssssssisiiiiyiititi    ",
"   bbbbbbbbbb&  bbcbxcxcbccxxxxkxjkjjj3.Xtfffffffssssssisiiiiiiiitii    ",
"   bbbbbbbbbb&  bbbbbbbcxxxbcxkxxxkxjj;  3fjffffsffssssssssisiitiiit    ",
"   bbbbbbbbbb&  bbbbbbxbcxxccxxxxkkjxk;  3fffffffsfsssssisiiisiiitii    ",
"   bbbbbbbbbb&  bbbbxbbxbbxbccxxxxxxkk:  3jjjfffffsffssssssisiiiiiii    ",
"   bbbbbbbbbb&  bbbbcbbbcbcxbxxxkxxkkk:  3jjfhjffffsfffsssisiisiiipi    ",
"   bbbbbbbbbb&  bbbbbbbbbcbxccbccxxxxk:  3jjjjgffffffssssssssisiiips    ",
"   bbbbbbbbbb&  bbbbbbbbbbcbbvcxcxxkxx:  3jjjhjjfffffsfsssssisiiiiia    ",
"   bbbbbbbbbb&  bbbbbbbbbcbcbxbxccccxx:  6jjjjjjfffffssfsssssssssiss    ",
"   bbbbbbbbbb&                           6kjjjjjjffffffffsssssssiass    ",
"   bbbbbbbbbb&                           6kxkjjjgjjfffdfsfsssssssiss    ",
"   bbbbbbbbbbq&&&&&&&&&&&&###%####+@###+=xxkxljjjjjffffffsfssssissss    ",
"   bbbbbbbbbbbbbbbbbbbbbbbbbbbbbbbbxxcxxkxxkjkkjjjjjhfffffsffsssisss    ",
"   bbbbbbbbbbbbbbbbbbbbbbbbbbbbxbxbxcxxcxxxkxkxkjjjjfjfffsfsssfsssss    ",
"   bbbbbbbbbbbbbbbbbbbbbbbbbbbcbbbcbcbcxcxxxkxjkjjjjjjfjffffgsssssss    ",
"   bbbbbbbbbbbbbbbbbbbbbbbbbbbbbcbbxbcbxcxkxxkxjxjjjjhjffffffsfssssf    ",
"   bbbbbbbbbbbbbbbbbbbbbbbbbbbbcbbcbcbcccxcxxxkxjxkljjjjjfffffffssff    ",
"   bbbbbbbbbbbbbbbbbbbbbbbbbbbbbbbbccbbxcxcxxxxxkkkkkjjjjhfgfffsfsfs    ",
"   bbbbbbbbbbbbbbbbbbbbbbbbbbbbbbbbbbxcbbxcccxxkkxkxjkjjgjjfgfffsfsf    ",
"   bbbbbbbbbbbbbbbbbbbbbbbbbbbbbbbbbbbxxbxbxxcxxckkkxjjjjjjjgffffsff    ",
"   bbbbbbbbbbbbbbbbbbbbbbbbbbbbbbbbbbcbbcbccccxxxxxkjjxjjjgjjfffffff    ",
"                                                                        ",
"                                                                        ",
"                                                                        ",
"                                                                        "
};
