/* XPM */
static char *result[] = {
/* columns rows colors chars-per-pixel */
"32 32 36 1 ",
"  c #002D25",
". c #032E2B",
"X c #0A2E2C",
"o c #142F2E",
"O c #1B2E2E",
"+ c #01322D",
"@ c #0C302F",
"# c #12302F",
"$ c #023531",
"% c #0B3432",
"& c #003C34",
"* c #013E3A",
"= c #133231",
"- c #1C3232",
"; c #3A2F33",
": c #243435",
"> c #2A3335",
", c #243738",
"< c #2C3739",
"1 c #273A3B",
"2 c #2D3A3C",
"3 c #353236",
"4 c #3B3337",
"5 c #35363A",
"6 c #3C363A",
"7 c #323A3C",
"8 c #3D383D",
"9 c #41373D",
"0 c #42393E",
"q c #004137",
"w c #00433C",
"e c #00483E",
"r c #333C40",
"t c #443B41",
"y c #004640",
"u c #004940",
/* pixels */
"+&qeeeeeyyyyyyyyyyyyyyyyyyweq&+ ",
"&&&qqeeewwywww*yy**y*yyywywq&&&&",
"qq&qeweqywwww*y**yy*y*y*www*q&&q",
"qqq&&*q*********************&qqq",
"eweq$++++.+.XXXX@@X..$.$.++$qwee",
"eq**..++++%%%@==@=@=@%.$++$$qeew",
"uww*.+++%%@=#oOO-Ooo=@@%.$$$qeue",
"uwwq+++.X=oo-------Oo=@@..&$weew",
"uewq.+.@==--,,::::,---o=XX*+*yuw",
"uww*.$%@=--r::>><>:,,,O=@X*$*yuw",
"uww*.%@O---rr<5<77r,r-O-o#%$*yyw",
"uw**.%#=,-,r255555r,rr:-o#%$*yyw",
"uww*X@O=,,r<33;44455r,:O-=%$*yyw",
"u***X=O-,,<33;9;4445rr>:O=%%*wyw",
"uw**X#O-,:r534tt9tr4r3:>OO=%*yyw",
"uww*X@=-r-<544ttttt4rr>>OO=@*wyw",
"yww*X%o:,>75;9tttt4rr7>:OO=%yyy*",
"uw**X=O-,>75;99tt49472>:OO%%*yyy",
"yw**X@o-,>27546r994r7r>:Oo=%*yy*",
"yw**X@#-,:<<556664r522::Oo%%*yyy",
"uw**X%%--,1rr7755rr221:-o#*%*yy*",
"uww*.X@o--1122722rr<1,O-o@%$*yyw",
"yw**.+X%---:>>>>>>>::OO=oX$$*yuw",
"ywww.$$%===--:::::::--o=XX$$*yyy",
"yyw*.+.XX##OOOO::OOOOooX..$$*uuw",
"uyw*.+++.%@#=ooOoOo=@@X$.$&$quuw",
"uqwq+$$$$$%%%%=%==%%%%$$$$&+&eww",
"w*q*&$$$$$$%%%%%%%%$%$$$.$$$qeew",
"q&&&&qq******************qqq&&qq",
"&&&qweuuyyywwwwywyy*uwwuweee&&&&",
"&&&eeuuuyyyyyyyyyyyuuuuuueeqq&++",
" +qeewwwywwwwwy*wy*wwwwwewqqq&+ "
};
