/* XPM */
static char *result[] = {
/* columns rows colors chars-per-pixel */
"50 50 71 1 ",
"  c #161A1B",
". c #1C1D1E",
"X c #201C1F",
"o c #1F1F21",
"O c #201F20",
"+ c #1E2122",
"@ c #232323",
"# c #26262A",
"$ c #27282A",
"% c #2A2C2E",
"& c #302F2F",
"* c #2C3133",
"= c #313233",
"- c #373738",
"; c #34383A",
": c #3B3C3C",
"> c #403B3C",
", c #3D4043",
"< c #444444",
"1 c #47494B",
"2 c #4B4B4C",
"3 c #494C51",
"4 c #504E53",
"5 c #4E5356",
"6 c #545454",
"7 c #57595B",
"8 c #5C5C5C",
"9 c #5E6162",
"0 c #626263",
"q c #676768",
"w c #67686A",
"e c #6A6A6C",
"r c #6D6F70",
"t c #757575",
"y c #777779",
"u c #7B7B7B",
"i c #818282",
"p c #898787",
"a c #8B8B8B",
"s c #8C9090",
"d c #959596",
"f c #9D9195",
"g c #9E9699",
"h c #9C9C9C",
"j c #AC9FA4",
"k c #A4A4A4",
"l c #ADA4A7",
"z c #ACACAC",
"x c #B5A8AD",
"c c #B4B5B5",
"v c gray",
"b c #C6C6C5",
"n c #CBCBCB",
"m c #D9C6CD",
"M c #D3D3D3",
"N c #D7DBD9",
"B c #DCDCDC",
"V c #E2DFE0",
"C c #E4E4E4",
"Z c #EBEBEC",
"A c #F5E1E8",
"S c #FAE5EC",
"D c #F5E9ED",
"F c #F9EAEF",
"G c #FBEFF3",
"H c #EFF0F0",
"J c #F3F3F3",
"K c #FBF4F6",
"L c #FBF7F8",
"P c #FAFAFA",
"I c None",
/* pixels */
"IIIIIIIIIIIIIIIIIIIIIIIIIIIIIIIIIIIIIIIIIIIIIIIIII",
"IIIIIIIIIIIIIIIIIIIIIIIIIIIIIIIIIIIIIIIIIIIIIIIIII",
"IIIIIIIIIIIIIIIIIIIIIIIIIIIIIIIIIIIIIIIIIIIIIIIIII",
"IIIIIIIIIIIIIIIIIIIIIIIIIIIIIIIIIIIIIIIIIIIIIIIIII",
"IIIIIIIIIIIIIIIIIII;=========*====5IIIIIIIIIIIIIII",
"IIIIIIIIIIIIIIIIIII-@#@##@####@#@@7IIIIIIIIIIIIIII",
"IIIIIIIIIIIIIIIII3%dbbbbbbbbbbbbbby%IIIIIIIIIIIIII",
"IIIIIIIIIIIIIIIII7>zCCCCCCCCCCCCCCp:6IIIIIIIIIIIII",
"IIIIIIIIIIIIIIII$aMZJPPPLLLLJPPJPPVnt$IIIIIIIIIIII",
"IIIIIIIIIIIIIII0-hVJPPPPPPPPPPPPPPZCi-eIIIIIIIIIII",
"IIIIIIIIIIIIII#yNZPPPPPPPPPPPPPPPPPPZN6$IIIIIIIIII",
"IIIIIIIIIIIIII@yVHPPPPPPPPPPPPPPPPPPZCt2rIIIIIIIII",
"IIIIIIIIIIIIIIOtVHPPPPPPPPPPPPPPPPPPPPCV:OIIIIIIII",
"IIIIIIIIIIII2qekZJPPPPPzkkzPPPPPMkkkMPZB:OIIIIIIII",
"IIIIIIIIIIIIotVZPPPPPPJ:@@,JPPPPh@OOhPZB:OIIIIIIII",
"IIIIIIIIIIIIoyZJPPPPPPJ:@O,JPPPPh@+@hPHCir9IIIIIII",
"IIIIIIIIIIII@uPPPPPPLPK>@@:LPPPPhOO+hPPPCM<$IIIIII",
"IIIIIIIIIIII.uPPPPPPLKD>@O:LPPPPkO@OgGLPCM<$IIIIII",
"IIIIIIIIIIIIXuPPPPPPPFA:OO:JPPPPhOOOfSKPVM<$IIIIII",
"IIIIIIIIIIII@uPPPPPPLFAxjzcPPPPPBzljmSLLCM<$IIIIII",
"IIIIIIIIIIIIXuPPPPPPPFSSSPPPPPPPPPKSSSLPCM<$IIIIII",
"IIIIIIIIIIII@uPPPPPPPLKKLPPPN666dPLLLLPPVM<$IIIIII",
"IIIIIIIIIIIIOyPPPPPPPPPPPPPPnO@@uPPPPPPPCM<$IIIIII",
"IIIIIIIIIIII+uPPPa<::MPPPPPLJNNNCPPPPPPPCM<$IIIIII",
"IIIIIIIIIIII@uPPPi&&&vZPPPPPPPPPPPPPPPPPCM<$IIIIII",
"IIIIIIIIIIII+uPPPHCZC8-VPPPPPPPPPPPPPPPPCM<@%%IIII",
"IIIIIIIIIIIe-pPPPPPPP4@BPPPPPPPPPPPPPPPPCM6;-:IIII",
"IIII*=IIII%8JJPPPPPPP2@NPPPPPPPPPPPPPPPPPPVBBM#+II",
"IIII34IIII2tPPLZMMMMM02VPPPPPPPPPPPPPPPPPPZCCV..II",
"II  JZ:o.:LPPPLd.....nPPPPPPPPPPPPPPPPPPPPPPPHO.II",
"II..JHt00tPPPPPc00000BPPPPPPPPPPPPPPPPJJvccccc:;II",
"II..JPPPPPPPPPPPPPPLPPPPPPPPPPPPPPPPPPCB:OO@+$IIII",
"II.oJPPPPPPPPPPPPPPPPPPPPPPPPPPPPPPPJHcd7::::,IIII",
"II..HPPPPPPPPPPPPPPPPPPPPPPPPPPPPPPPZV5@IIIIIIIIII",
"II..JPPPPPPPPPPPPPPPPPPPPPPPPPPPPPPPZV6#IIIIIIIIII",
"II..HPPPPPPPPPPPPPPPPPPPPPPPPPPPPPPPZV6@IIIIIIIIII",
"III5iaZPPPPPPPPPPPPPPPPPPPPPPPPPPPJZzue5IIIIIIIIII",
"IIII$&VPPPPPPPPPPPPPPPPPPPPPPPPPPPZCtOIIIIIIIIIIII",
"IIII$&VPPPPPPPPPPPPPPPPPPPPPPPPPPZd7wIIIIIIIIIIIII",
"IIII$*BPPPPPPPPPPPPPPPPPPPPPPPPPHVt@IIIIIIIIIIIIII",
"IIIIII19ZPPPPPPPPPPPPPPPPPPPJZCCh:tIIIIIIIIIIIIIII",
"IIIIII=2BZZDPPPPPPPPPPPPPPLLHMMMs%5IIIIIIIIIIIIIII",
"IIIIIIII322tPPPJCCCCCCCCCZCCb1119IIIIIIIIIIIIIIIII",
"IIIIIIII###8VVVMnnnnnnnnnnnnz@$$1IIIIIIIIIIIIIIIII",
"IIIIIIIIIIIr===;========&&&=:IIIIIIIIIIIIIIIIIIIII",
"IIIIIIIIIIII++++++++++++++++%IIIIIIIIIIIIIIIIIIIII",
"IIIIIIIIIIIIIIIIIIIIIIIIIIIIIIIIIIIIIIIIIIIIIIIIII",
"IIIIIIIIIIIIIIIIIIIIIIIIIIIIIIIIIIIIIIIIIIIIIIIIII",
"IIIIIIIIIIIIIIIIIIIIIIIIIIIIIIIIIIIIIIIIIIIIIIIIII",
"IIIIIIIIIIIIIIIIIIIIIIIIIIIIIIIIIIIIIIIIIIIIIIIIII"
};
