/* XPM */
static char *_252cebd45da4829a4d275c1faddf05dkbksRxpofyEHTfJA[] = {
/* columns rows colors chars-per-pixel */
"64 64 137 2 ",
"   c None",
".  c #111115",
"X  c #1C1B20",
"o  c #1F1F23",
"O  c #212029",
"+  c #21202A",
"@  c #23222B",
"#  c #242429",
"$  c #252429",
"%  c #24232C",
"&  c #24232D",
"*  c #25242E",
"=  c #25252E",
"-  c #26252E",
";  c #27262F",
":  c #29292D",
">  c #2B2A2F",
",  c #272630",
"<  c #272730",
"1  c #282730",
"2  c #282731",
"3  c #282831",
"4  c #292831",
"5  c #292832",
"6  c #292932",
"7  c #2A2932",
"8  c #2A2933",
"9  c #2A2A33",
"0  c #2B2A33",
"q  c #2D2C32",
"w  c #2B2A34",
"e  c #2B2B34",
"r  c #2C2B34",
"t  c #2C2B35",
"y  c #2C2C35",
"u  c #2D2C35",
"i  c #2D2C36",
"p  c #2D2D36",
"a  c #2E2D36",
"s  c #2E2D37",
"d  c #2E2E37",
"f  c #2F2E37",
"g  c #2F2E38",
"h  c #2F2F38",
"j  c #302F38",
"k  c #302F39",
"l  c #303039",
"z  c #313039",
"x  c #31303A",
"c  c #31313A",
"v  c #32313A",
"b  c #32313B",
"n  c #32323A",
"m  c #32323B",
"M  c #33323B",
"N  c #34333B",
"B  c #33323C",
"V  c #33333C",
"C  c #34333C",
"Z  c #34333D",
"A  c #34343D",
"S  c #35343D",
"D  c #35343E",
"F  c #35353E",
"G  c #36353E",
"H  c #36353F",
"J  c #36363E",
"K  c #36363F",
"L  c #37363F",
"P  c #373640",
"I  c #373740",
"U  c #383740",
"Y  c #383741",
"T  c #383840",
"R  c #383841",
"E  c #393841",
"W  c #393842",
"Q  c #393942",
"!  c #3A3942",
"~  c #3A3943",
"^  c #3A3A43",
"/  c #3B3A43",
"(  c #3B3A44",
")  c #3B3B44",
"_  c #3C3B44",
"`  c #3C3B45",
"'  c #3C3C45",
"]  c #3D3C45",
"[  c #3D3C46",
"{  c #3D3D46",
"}  c #3E3D46",
"|  c #3E3D47",
" . c #3E3E47",
".. c #3F3E47",
"X. c #3F3E48",
"o. c #3F3F48",
"O. c #403F48",
"+. c #403F49",
"@. c #404048",
"#. c #404049",
"$. c #414049",
"%. c #41404A",
"&. c #41414A",
"*. c #42414A",
"=. c #42414B",
"-. c #42424B",
";. c #43424B",
":. c #43424C",
">. c #43434C",
",. c #44434C",
"<. c #44434D",
"1. c #44444D",
"2. c #45444D",
"3. c #46454D",
"4. c #45444E",
"5. c #45454E",
"6. c #46454E",
"7. c #46454F",
"8. c #47464E",
"9. c #46464F",
"0. c #47464F",
"q. c #474650",
"w. c #474750",
"e. c #484750",
"r. c #484751",
"t. c #484851",
"y. c #494851",
"u. c #494852",
"i. c #494952",
"p. c #4A4952",
"a. c #4A4953",
"s. c #4A4A53",
"d. c #4B4A53",
"f. c #4B4A54",
"g. c #4B4B54",
"h. c #4C4B54",
"j. c #4C4B55",
/* pixels */
"                                                                                                                                ",
"                                                                                                                                ",
"                                                                                                                                ",
"        $ C p.G G w._ P p.%.! 8.e.x Y f...! p._ 2 P 8.%.G p.%.y e._ +.p._ ( p.G C 8...P p.=.C G p.o.P f._ w V 8.=.G %.:         ",
"      q ! ! e.G G w._ P p.%._ 8.w.Y %.P p.o.P p.j p.#.P p...Y o.e._ #.p._ ( p.G G e._ P p.=.! ,.G e.%.P p.G ,.%.G p...G $       ",
"      8.! _ p.G C p._ P p.%.! ,.w.V ,.=.P 8.%.P y ( ( e.( _ p.V e._ o.p._ ( p.G C e...P p.=.C +.=.! =.=.T x ! ! p.( ' p.x       ",
"      p._ ! p.G V ! V V p.%._ 8.e.G ! o.w.! o.w.x %.8.Y %.8.P P e._ #.p.( ( P x h e._ P e.=.Y ( o.w.! o.w.x _ e.! ..8.! !       ",
"      p.! _ p.r V p...h G %.! ,.e.C p.( ! p.( ! f.x G 8.%.P t.( e._ %.p.x C w.=.r C ..P p.,.C h._ ! f.( ! f.G V 8.1.G 8.#.      ",
"      p.( P x 8.,.G 8.=.V P x 1.e.j Y f.! ( p.! ( f.P ! G p.%.y e.( ..x =.8.V =.1.G P y w.=.V P f.( ! g.( _ h.Y T G w.%.h       ",
"      ,.h o.w.! o.8.! %.8.P ( y +.Y %.! 8.#.! t...( w.( ! G ! o.=.j ..p.! ..w.( %.8.P ..h _ Y ,.T 8.=.P 8.+.Y w...( ! P =.      ",
"      y w._ ( e.( ( e._ _ w.( ..C * ! 0.! %.8.P =.=.P w.#.! %.: w 8...T w...( p.( ( w.( _ G * Y w.T ..8.Y =.=.! =.=.! %.w       ",
"      o.r %.+.G f...Y p._ ! p.! _ G G y t.P o.t.G =.w.G 8.=.x ! ( y ..%.G p.o.G p...! p...! G G y w.! ..p.Y o.e.G =.w.h ..      ",
"      C p...j ,.G 8.%.Y f.o.P u._ G %.%.< o.P ..f.P o.p.x ) ! ,.x p.o.h =.P 8.=.P w.%.L p...x ,.=.8 ( ( _ p.! ..f.G P P w.      ",
"      8.) ' w.G ( ! ,.%.Y 8.%.Y e.! %.p.! G x ( ( t...y 8.%.) ,.%.' ( p.P P ! %.,.Y ,.%.Y 8.Y ,.w.! ( j ! _ w._ w =.( Y w.      ",
"      G %.8.! %.=.Y Y ..0.Y %.w.Y G +.p.! ( 8.< G G ! G p.%...%.V ..8.Y o.8.P P o.e.Y +.8.Y C ,.w.( +.e.y Y P V G 8._ Y e.      ",
"      %.%.G p.%.G %.! ! ! h.! ! f.G %.p.( _ p.G G w.( ! p.%.! 8.%.8.V 8.=.P ,.G ( Y h.( ! f.P ,.e.! %.p.( ! w.G G t._ Y e.      ",
"      ..G p.%.G h.( j f.! ( f.P ..P +.p.( _ e.G C e._ Y p.%.' %._ C e.+.C u.+.r h._ Y h.! ! Y ,.e.( +.p.' ! t.G G t...G w.      ",
"      Y e.( ! p.( Y j ! 8.+.! w.o.G +.f.! _ p.G G e._ Y p.%.( ,.C w.X.( p._ Y s Y 8.;.Y w.+.C ,.e.! +.p.! ( w.G G w.( ! e.      ",
"      ,.! o.8.! +.+.C ,.! =.8.P ,.Y +.e.( _ e.G C e._ Y p.%.( %.+._ X.e.W +.q.j w.Y +.8.Y ,.Y %.e.! %.p.( ! w.G G p.( G 8.      ",
"      G =.w.G =.,.V r ..e.P o.p.V P h 8.! _ p.G G e._ P e.+.x G P +.e.C ,.w.C 2 _ e.Y o.e.C Y j 8.! %.p.! ( w.P N 8.! x V       ",
"      8.=.P w.=.P +.Y ( _ e.P Y ( ( u.( x ! e.G N 8._ P %.w +.G ,.w.P ,.,.P ,.C _ _ u.Y Y o.P p.! x ..p.! ( e.P G +.8 %.G       ",
"      %.! w.o.! e.W j e._ s ,.( _ w.( o.w.V _ G G p.C h G %.! ,.+.W e.+.Y e.X.w e.o.h ,._ ( e.( _ e.P _ ! ! w.j y G =.! ,.      ",
"      ! e._ ( e.( P k C P w.W +.,.( =.,.P 8.=.V y ! w =.o.! w...Y e._ _ e.W W s C C q.Y o.w.W +.8.Y =.=.V x T 8 =.%.Y e.o.      ",
"      f.P =.e.G +.j 2 ,.,.P w.,.P e.o.P f._ Y +.* G f.! ( f.T ..h.Y _ h.P X.V , ,.w.G ,.=.P w.,.P e.+.P o.< V f.! ! h.Y _       ",
"      G +.e.G P _ w.Y =.C e.=.C f.o.P h...C V V C w.w ( f.! ..p.Y +.p.P C ( p.V ,.P w.,.C e.=.C g.o.G V G ( 8.w ! f.! ( f.      ",
"      8.o.V Y e._ G h ( e._ _ e.( _ e.C C h e.P G e._ C P %.=.Y ,.+.x ! e.+.Y r Y w.o.Y u._ ( e.G x x t.! ! t.G V T ..8.P       ",
"      V P =.,.Y 8...V e.! o.w.! %.%.r Y Y _ p.G C e._ Y e.C G 8.C C %.,.Y ,.=.y e.( o.e.( o.,.r G ! #.p.( ! t.G G e.x G w.      ",
"      _ e.P +.w.C ( P C =.w.G =.8.j ! p.! _ e.G C e._ Y p.%.! G _ e.Y +.p.G o.V P +.w.C =.w.j ( w.! #.p.! ' t.G C e._ P !       ",
"      G _ p.Y o.f.V w ,.8.G 8.,.G G @.p.! _ e.G P e._ Y e.%.( 8.x ( p.! _ p.Y 2 ,.8.G 8.,.G C ,.w.! +.p.! ( p.P G e._ Y e.      ",
"      8._ ( w.( _ =.Y +.Y w.+.! e.! %.p.! _ p.G C e._ Y p.%.( ,.=..._ e._ _ w.V %.! ,.%.Y w.Y ,.e.( +.p.( ! 8.G C e._ Y e.      ",
"      G 8.%.! w.o.C s ( e._ _ e.( G %.p.! _ p.G C e._ Y p.;._ ,.C ,.=.Y 8.+.P r ! w...! p._ C ,.e.! %.p.( ( w.P G w._ Y e.      ",
"      =.G =.w.C w.o.C f.G +.e.G %.( %.p.( _ e.V h +._ Y e.%._ ,.%.P +.w.G ,.,.j f.G ..f.G +.! ,.e.! %.p.Y V +.P C e._ Y e.      ",
"      ..f.P +.e.C =.o.w +.w.P =.8.G #.p.( ! L G f.r j C p.%.( ,.! p.P +.p.G +.8.8 %.p.P %.p.G %.p.! %.! C p.x h j e._ Y e.      ",
"      Y ( e._ _ e.( _ w.j P 8.+.! G %.p.x G 8.%.Y w...h G %.( ,.G ( e.( _ e.( ( w.x G =.%.! G %.w.x G >.=.P 8.o.h G _ P e.      ",
"      ,.+.! w...( e.o.( p.( C ! t.P ..G ..8.! O.8.Y %.8.V P V =.%.o.! w.o.! w.o.! p.! G ! w.G %.x ..p.! o.w.! o.,.C Y h w.      ",
"      y e.=.P e.%.P w.o.P t.o.G V 3 T p.( ' p.Y o.e.P o.p.G ! w w 8.8.V w.,.C w.%.G p.+.V G 8 G p...! p.! _ p.! o.e.P ( r       ",
"      Y r +.w.C 8.,.G w.1.G t.o.P x G x d._ ! d.Y _ p.Y _ f.P C P y +.e.C ,.w.C 8.=.P w.%.G x P x p...! p.( ( p.Y ..p.Y Y       ",
"      p.C V j w.P =.8.Y =.=.V ! w.x 8.%.y +.+.! e.o._ e._ _ e.C e.P C r w.Y o.e.! %.8.x _ ,.C ,.%.x ! %.! 8.o.! e._ _ e.P       ",
"      p._ ( _ 2 +.( _ e.T ! P 8.p.P ..! p.! x =.Y ,.=.Y w.o.Y _ e._ +.+.8 _ _ ( e.Y P C e.,.W +.! p...y %.P =.=.Y 8.=.! o.      ",
"      p._ _ e.C h P _ r 8.%.! ,.8.h ..p.G +.p.V +.P +.e.P ,.w.j e._ +.e.( C V o.8 ,._ P p.=.k ( g.L ..p.V ..! ..e.G %.e.x       ",
"      p.! _ p.G C 8.! P p.%.! 8.w.! p.G %.p.G %.V e.P +.e.P %.+.e._ +.p...! 8.G V e...P e.,.Y h.Y o.p.P o.! 8.G o.e.P +.,.      ",
"      p._ ! e.G G t.' P p.%.! 8.p.x ! =.%.! 8.%.w _ w._ _ e._ C e._ +.p.( ( w.P C e._ P e.,.P P %.=.! =.%.y P p._ _ w.( C       ",
"      p.! _ p.G V t.( P p.%._ ,.8.N 8...! t...! j +.Y e.o.Y e.Y e._ +.p.! ( p.Y C w._ P e.,.C w.+.! w...( G ..G e.o.W w.(       ",
"      p._ ! e.G G p.( P p.%._ 8.w.Y _ ( f.P ..p.w 8.,.C w.=.G _ w._ +.p...! w.G C w...P e.,.Y ..! p.( ( p.h %.0.C w.,.P +.      ",
"      C P ! p.G C t.( P p.%.( =.j V ' p.P o.p.G r G %.w.G ,.8.C C P +.p._ ( w.P G e._ Y e.j V Y d.! _ p.! y x %.e.G +.w.C       ",
"      w...y 8.G G w...G p.+.V ! P o.w.T %.1.! %.x e.! o.w.P Y Y w...h 8.( ( p.G C e._ h Y G ..w.! %.8.! %.G ,.! ..e.Y ( Y       ",
"      ( ..w.! h V p...P %.y ( P ,.=.T 8.#.! 8.#.8 ! w.( Y ! _ e.( _ e.! V Y p.P G =.w ..Y =.8.P 8.%.P 8.%.y P e._ P ( ! p.      ",
"      =.w.G =.8.8 ..G w G o.P p...Y p.) ! f.( ! C =.r ,.G +.p.G %.e.G ,.8.y +.C r C %.P e.+.P p.' Y f.! ! P +.r ,.P ..f.G       ",
"      8.V w.=.C w.r + p...G p...P f._ Y h.( ( ,.+ C f.P +.e.Y +.e.C ,.8.V 8.j O e.+.P u.o.P u.o.P f.' ! ,.@ h h.Y o.p.Y +.      ",
"      Y w.o.! o.* =.! x ( p.( ( e.( o.e.Y ..C _ V ,.Y =.,.Y ,.%.Y 8.+.Y o.8 %.G j ( e._ _ e.( _ t.! ( G ( P %.Y =.=.Y =.;.      ",
"      p.! ! G x C p.( P ,.x %.8.P =.,.P ( Y e...8 ( w...! e...! e._ Y P V Y t.P C ,.s +.q.Y =.w.P ! P t.o.r C 8.+.! w...!       ",
"      V G y 8.G G e.( P p.%.V V w.+.V C e.%.G e.h e._ ! p.! ( h.C C h e._ ( t.G C e._ C C ,.,.j V 8.=.G e.P ,.o.Y f._ ( d.      ",
"      P ! ! p.G G w...G p.%._ 8.P j ,.w.C 8.8.C h ! _ f.P o.p.G Y Y +.f._ ( e.P C e._ Y e.C k +.w.G =.w.C x P ! f.! ( f.Y       ",
"      p.! ( e.G C p.! Y p.%.! ,.w.G ! o.w.Y o.w.8 o.w.Y +.,.Y Y e._ +.p._ ( p.P P e._ Y e.,.Y ( o.w.! o.e.y ( w.! o.w.P !       ",
"      p._ ! p.G G w._ L p.%._ 8.e.C e.( ( e.( ' j =.Y ,.%.Y 8.Y e._ +.p._ ( e.Y C e._ Y e.,.P e._ _ e._ _ P o.! 8.%.! 8...      ",
"      p.! _ p.G G t._ Y p.%.! ,.w.V G p.o.P p.o.2 Y p...! h.( j e._ +.p._ _ e.Y C e._ Y e.,.C C e.=.G p.+.w C e...P p.( x       ",
"      p.! _ p.G C 1.! P p.%._ 8.e.! ,.G w.+.G w.x f...G h.! ! %.e._ +.p._ _ ,.C C e._ Y e.,.Y e.P w.,.C e.P 8.o.G f.( T 8.      ",
"      p._ ! p.x x ( ! 8 %.%.! ,.w.x +.w.! %.8.P %.y ..p.! %.w.x e._ o.p.Y C Y o.< o._ Y e.=.C o.w.W +.8.Y +.k _ p.! ..p.V       ",
"      8.! ) ( x e...! =.8 G L 8.w.G ..! e.( ..p.! #.( x =.=.Y ! e.( +...V 8.%.Y w.r C G e.,.Y _ W e._ _ e._ o.o.h =.8.P !       ",
"      : V N =.8.G 8.1.G p...y G 8.V p...Y p.( ! p.! ..p.y Y p._ w.G C ,.q.G ,.8.V w.o.w W ,.C f.+.Y f._ Y f._ Y p.x V w.o       ",
"        X %.G %.w.G ,.8.G 8.=.x C y G p.o.Y e...! p...! p.P V y h ..p.P o.e.P %.e.G =.w.h C r G e.%.G p.o.Y e.o.! p.N .         ",
"                                                                                                                                ",
"                                                                                                                                ",
"                                                                                                                                "
};
