/* XPM */
static char *result[] = {
/* columns rows colors chars-per-pixel */
"50 50 2 1 ",
"  c white",
". c #3A3A3A",
/* pixels */
"                                                  ",
"                                                  ",
"                                                  ",
"   ............................................   ",
"   ............................................   ",
"   ............................................   ",
"   ............................................   ",
"   ............................................   ",
"   ............................................   ",
"   ............................................   ",
"   ............................................   ",
"   ............................................   ",
"   ............................................   ",
"   ............................................   ",
"   ............................................   ",
"   ............................................   ",
"   ............................................   ",
"   ............................................   ",
"   ............................................   ",
"   ............................................   ",
"   ............................................   ",
"   ............................................   ",
"   ............................................   ",
"   ............................................   ",
"   ............................................   ",
"   ............................................   ",
"   ............................................   ",
"   ............................................   ",
"   ............................................   ",
"   ............................................   ",
"   ............................................   ",
"   ............................................   ",
"   ............................................   ",
"   ............................................   ",
"   ............................................   ",
"   ............................................   ",
"   ............................................   ",
"   ............................................   ",
"   ............................................   ",
"   ............................................   ",
"   ............................................   ",
"   ............................................   ",
"   ............................................   ",
"   ............................................   ",
"   ............................................   ",
"   ............................................   ",
"   ............................................   ",
"                                                  ",
"                                                  ",
"                                                  "
};
