/* XPM */
static char *result[] = {
/* columns rows colors chars-per-pixel */
"32 32 41 1 ",
"  c #000202",
". c #000505",
"X c #000909",
"o c #001212",
"O c #001313",
"+ c #002B2B",
"@ c #003131",
"# c #003232",
"$ c #003333",
"% c #004444",
"& c #004A4A",
"* c #004F4F",
"= c #005454",
"- c #005858",
"; c #005B5B",
": c #005C5C",
"> c #005D5D",
", c #006565",
"< c #007979",
"1 c #1C7272",
"2 c #008383",
"3 c #008484",
"4 c #168F8F",
"5 c #009F9F",
"6 c #00A0A0",
"7 c #00AAAA",
"8 c #0FB2B2",
"9 c #00B8B8",
"0 c #00BEBE",
"q c #00BFBF",
"w c #00C3C3",
"e c #00C9C9",
"r c #00CDCD",
"t c #00CECE",
"y c #00EFEF",
"u c #00F0F0",
"i c #00F1F1",
"p c #00FCFC",
"a c #00FEFE",
"s c cyan",
"d c None",
/* pixels */
"dddddddddddddddddddddddddddddddd",
"dd1111111111111111111111111111dd",
"d148888888888888888888888888841d",
"d18ssssssssssprwwtpssssssssss81d",
"d18sssssssssay+  +yasssssssss81d",
"d18ssssssssse@X>>X@esssssssss81d",
"d18ssssssss9*.:65;.*9ssssssss81d",
"d18sssssss0=o&7qq7&o=qsssssss81d",
"d18sssssss,O$qqqqqq$O,sssssss81d",
"d18sssssssi<$qqqqqq$<isssssss81d",
"d18ssss0,is2$qqqqqq$3si,qssss81d",
"d18sss9=O<2%$qqqqqq$%2<o=9sss81d",
"d18sae*o$$$$-qqqqqq-$$$$o*eas81d",
"d18py@.&qqqqqqqqqqqqqqqq&.#yp81d",
"d18r+X:7qqqqqqqqqqqqqqqq7;X+t81d",
"d18w >6qqqqqqqqqqqqqqqqqq6> w81d",
"d18w >5qqqqqqqqqqqqqqqqqq5> w81d",
"d18t+X;7qqqqqqqqqqqqqqqq7;X+t81d",
"d18py@.&qqqqqqqqqqqqqqqq&.#up81d",
"d18sae*o$$$$-qqqqqq-$$$$o*eas81d",
"d18sss9=O<3%$qqqqqq$%3<o=9sss81d",
"d18ssssq,is2$qqqqqq$3si,qssss81d",
"d18sssssssi<$qqqqqq$<isssssss81d",
"d18sssssss,o$qqqqqq$o,sssssss81d",
"d18sssssssq=o&7qq7&o=qsssssss81d",
"d18ssssssss9*.;65;.*9ssssssss81d",
"d18ssssssssse#X>>X#esssssssss81d",
"d18sssssssssay+  +uasssssssss81d",
"d18ssssssssssptwwtpssssssssss81d",
"d148888888888888888888888888841d",
"dd1111111111111111111111111111dd",
"dddddddddddddddddddddddddddddddd"
};
