/* XPM */
static char *result[] = {
/* columns rows colors chars-per-pixel */
"32 32 78 1 ",
"  c black",
". c #3A3A3A",
"X c #565656",
"o c #8D8D8D",
"O c #9D9D9D",
"+ c #C0C0C0",
"@ c #C1BDBD",
"# c #C2B9B9",
"$ c #EA4141",
"% c #F22727",
"& c #CAA2A2",
"* c #E65454",
"= c #FA8888",
"- c #FF9393",
"; c #FF5A5A",
": c #FA0E0E",
"> c #E64D4D",
", c #CAA3A3",
"< c #D18D8D",
"1 c #FF0C0C",
"2 c #FFD3D3",
"3 c #FFC7C7",
"4 c #FF6363",
"5 c red",
"6 c #B9B9B9",
"7 c #A5A5A5",
"8 c #818181",
"9 c #989898",
"0 c gray70",
"q c #FF0A0A",
"w c #FFB6B6",
"e c #FF5555",
"r c #BBBBBB",
"t c gray63",
"y c #656565",
"u c gray6",
"i c gray28",
"p c gray57",
"a c #FF0101",
"s c #FF1010",
"d c #FF0808",
"f c #A2A2A2",
"g c #606060",
"h c #090909",
"j c #010101",
"k c #060606",
"l c gray34",
"z c #C5B1B1",
"x c #D58181",
"c c #F71717",
"v c gray44",
"b c #1B1B1B",
"n c gray52",
"m c #C2BBBB",
"M c #DB6E6E",
"N c #A82424",
"B c #5D5D5D",
"V c gray2",
"C c #353535",
"Z c #7C7C7C",
"A c gray68",
"S c #4B4B4B",
"D c #6F6F6F",
"F c gray20",
"G c #848484",
"H c #AFAFAF",
"J c gray75",
"K c gray74",
"L c #929292",
"P c gray64",
"I c #B7B7B7",
"U c #AAAAAA",
"Y c #3C3C3C",
"T c #9B9B9B",
"R c gray65",
"E c #A0A0A0",
"W c gray",
"Q c #5F5F5F",
/* pixels */
"                                ",
" .XXXXXXXXXXXXXXXXXXXXXXXXXXXX. ",
" XoOOOOOOOOOOOOOOOOOOOOOOOOOOoX ",
" XO++++++++++++++++++++++++++OX ",
" XO+++++++++++@@@@+++++++++++OX ",
" XO++++++++++#$%%$#++++++++++OX ",
" XO+++++++++&*=-;:>,+++++++++OX ",
" XO+++++++++<123455<+67890+++OX ",
" XO+++++++++<qwe555<rtyuip+++OX ",
" XO+++++++++<asd555<fghjkl+++OX ",
" XO+++++++++zxc55cxzvb  .n+++OX ",
" XO++++++++++mMNNMm+B VCZA+++OX ",
" XO++++++++++++SS++0DF.GH++++OX ",
" XO++++++++++++SSJKLP++++++++OX ",
" XO++++++++++++SSIoUr++++++++OX ",
" XO++++++++++++SYTR6+++++++++OX ",
" XO++++++++++++SYEW++++++++++OX ",
" XO++++++++++++QQ++++++++++++OX ",
" XO++++++++++++rr++++++++++++OX ",
" XO++++++++++++++++++++++++++OX ",
" XO++++++++++++++++++++++++++OX ",
" XO++++++++++++++++++++++++++OX ",
" XO++++++++++++++++++++++++++OX ",
" XO++++++++++++++++++++++++++OX ",
" XO++++++++++++++++++++++++++OX ",
" XO++++++++++++++++++++++++++OX ",
" XO++++++++++++++++++++++++++OX ",
" XO++++++++++++++++++++++++++OX ",
" XO++++++++++++++++++++++++++OX ",
" XoOOOOOOOOOOOOOOOOOOOOOOOOOOoX ",
" .XXXXXXXXXXXXXXXXXXXXXXXXXXXX. ",
"                                "
};
