/* XPM */
static char *e20d7bf0128c44e7ac43cc5298c8a3130mqNxDnGBWzSWrbB[] = {
/* columns rows colors chars-per-pixel */
"72 72 13 1 ",
"  c #D2A5AE",
". c #D1A3AD",
"X c #D0A2AB",
"o c #D1A4AD",
"O c #CA9CA3",
"+ c #DAADB5",
"@ c #CFA1AA",
"# c #D0A2AC",
"$ c #CEA1AA",
"% c #D1A4AE",
"& c #CDA0A8",
"* c #CC9EA5",
"= c #CEA1A9",
/* pixels */
" .Xo .Xo .Xo .Xo .Xo .Xo .Xo .Xo .Xo .Xo .Xo .Xo .Xo .Xo .Xo .Xo .Xo .Xo",
"O+@#O+@#O+@#O+@#O+@#O+@#O+@#O+@#O+@#O+@#O+@#O+@#O+@#O+@#O+@#O+@#O+@#O+@#",
"$%&*$%&*$%&*$%&*$%&*$%&*$%&*$%&*$%&*$%&*$%&*$%&*$%&*$%&*$%&*$%&*$%&*$%&*",
"$&=o$&=o$&=o$&=o$&=o$&=o$&=o$&=o$&=o$&=o$&=o$&=o$&=o$&=o$&=o$&=o$&=o$&=o",
" .Xo .Xo .Xo .Xo .Xo .Xo .Xo .Xo .Xo .Xo .Xo .Xo .Xo .Xo .Xo .Xo .Xo .Xo",
"O+@#O+@#O+@#O+@#O+@#O+@#O+@#O+@#O+@#O+@#O+@#O+@#O+@#O+@#O+@#O+@#O+@#O+@#",
"$%&*$%&*$%&*$%&*$%&*$%&*$%&*$%&*$%&*$%&*$%&*$%&*$%&*$%&*$%&*$%&*$%&*$%&*",
"$&=o$&=o$&=o$&=o$&=o$&=o$&=o$&=o$&=o$&=o$&=o$&=o$&=o$&=o$&=o$&=o$&=o$&=o",
" .Xo .Xo .Xo .Xo .Xo .Xo .Xo .Xo .Xo .Xo .Xo .Xo .Xo .Xo .Xo .Xo .Xo .Xo",
"O+@#O+@#O+@#O+@#O+@#O+@#O+@#O+@#O+@#O+@#O+@#O+@#O+@#O+@#O+@#O+@#O+@#O+@#",
"$%&*$%&*$%&*$%&*$%&*$%&*$%&*$%&*$%&*$%&*$%&*$%&*$%&*$%&*$%&*$%&*$%&*$%&*",
"$&=o$&=o$&=o$&=o$&=o$&=o$&=o$&=o$&=o$&=o$&=o$&=o$&=o$&=o$&=o$&=o$&=o$&=o",
" .Xo .Xo .Xo .Xo .Xo .Xo .Xo .Xo .Xo .Xo .Xo .Xo .Xo .Xo .Xo .Xo .Xo .Xo",
"O+@#O+@#O+@#O+@#O+@#O+@#O+@#O+@#O+@#O+@#O+@#O+@#O+@#O+@#O+@#O+@#O+@#O+@#",
"$%&*$%&*$%&*$%&*$%&*$%&*$%&*$%&*$%&*$%&*$%&*$%&*$%&*$%&*$%&*$%&*$%&*$%&*",
"$&=o$&=o$&=o$&=o$&=o$&=o$&=o$&=o$&=o$&=o$&=o$&=o$&=o$&=o$&=o$&=o$&=o$&=o",
" .Xo .Xo .Xo .Xo .Xo .Xo .Xo .Xo .Xo .Xo .Xo .Xo .Xo .Xo .Xo .Xo .Xo .Xo",
"O+@#O+@#O+@#O+@#O+@#O+@#O+@#O+@#O+@#O+@#O+@#O+@#O+@#O+@#O+@#O+@#O+@#O+@#",
"$%&*$%&*$%&*$%&*$%&*$%&*$%&*$%&*$%&*$%&*$%&*$%&*$%&*$%&*$%&*$%&*$%&*$%&*",
"$&=o$&=o$&=o$&=o$&=o$&=o$&=o$&=o$&=o$&=o$&=o$&=o$&=o$&=o$&=o$&=o$&=o$&=o",
" .Xo .Xo .Xo .Xo .Xo .Xo .Xo .Xo .Xo .Xo .Xo .Xo .Xo .Xo .Xo .Xo .Xo .Xo",
"O+@#O+@#O+@#O+@#O+@#O+@#O+@#O+@#O+@#O+@#O+@#O+@#O+@#O+@#O+@#O+@#O+@#O+@#",
"$%&*$%&*$%&*$%&*$%&*$%&*$%&*$%&*$%&*$%&*$%&*$%&*$%&*$%&*$%&*$%&*$%&*$%&*",
"$&=o$&=o$&=o$&=o$&=o$&=o$&=o$&=o$&=o$&=o$&=o$&=o$&=o$&=o$&=o$&=o$&=o$&=o",
" .Xo .Xo .Xo .Xo .Xo .Xo .Xo .Xo .Xo .Xo .Xo .Xo .Xo .Xo .Xo .Xo .Xo .Xo",
"O+@#O+@#O+@#O+@#O+@#O+@#O+@#O+@#O+@#O+@#O+@#O+@#O+@#O+@#O+@#O+@#O+@#O+@#",
"$%&*$%&*$%&*$%&*$%&*$%&*$%&*$%&*$%&*$%&*$%&*$%&*$%&*$%&*$%&*$%&*$%&*$%&*",
"$&=o$&=o$&=o$&=o$&=o$&=o$&=o$&=o$&=o$&=o$&=o$&=o$&=o$&=o$&=o$&=o$&=o$&=o",
" .Xo .Xo .Xo .Xo .Xo .Xo .Xo .Xo .Xo .Xo .Xo .Xo .Xo .Xo .Xo .Xo .Xo .Xo",
"O+@#O+@#O+@#O+@#O+@#O+@#O+@#O+@#O+@#O+@#O+@#O+@#O+@#O+@#O+@#O+@#O+@#O+@#",
"$%&*$%&*$%&*$%&*$%&*$%&*$%&*$%&*$%&*$%&*$%&*$%&*$%&*$%&*$%&*$%&*$%&*$%&*",
"$&=o$&=o$&=o$&=o$&=o$&=o$&=o$&=o$&=o$&=o$&=o$&=o$&=o$&=o$&=o$&=o$&=o$&=o",
" .Xo .Xo .Xo .Xo .Xo .Xo .Xo .Xo .Xo .Xo .Xo .Xo .Xo .Xo .Xo .Xo .Xo .Xo",
"O+@#O+@#O+@#O+@#O+@#O+@#O+@#O+@#O+@#O+@#O+@#O+@#O+@#O+@#O+@#O+@#O+@#O+@#",
"$%&*$%&*$%&*$%&*$%&*$%&*$%&*$%&*$%&*$%&*$%&*$%&*$%&*$%&*$%&*$%&*$%&*$%&*",
"$&=o$&=o$&=o$&=o$&=o$&=o$&=o$&=o$&=o$&=o$&=o$&=o$&=o$&=o$&=o$&=o$&=o$&=o",
" .Xo .Xo .Xo .Xo .Xo .Xo .Xo .Xo .Xo .Xo .Xo .Xo .Xo .Xo .Xo .Xo .Xo .Xo",
"O+@#O+@#O+@#O+@#O+@#O+@#O+@#O+@#O+@#O+@#O+@#O+@#O+@#O+@#O+@#O+@#O+@#O+@#",
"$%&*$%&*$%&*$%&*$%&*$%&*$%&*$%&*$%&*$%&*$%&*$%&*$%&*$%&*$%&*$%&*$%&*$%&*",
"$&=o$&=o$&=o$&=o$&=o$&=o$&=o$&=o$&=o$&=o$&=o$&=o$&=o$&=o$&=o$&=o$&=o$&=o",
" .Xo .Xo .Xo .Xo .Xo .Xo .Xo .Xo .Xo .Xo .Xo .Xo .Xo .Xo .Xo .Xo .Xo .Xo",
"O+@#O+@#O+@#O+@#O+@#O+@#O+@#O+@#O+@#O+@#O+@#O+@#O+@#O+@#O+@#O+@#O+@#O+@#",
"$%&*$%&*$%&*$%&*$%&*$%&*$%&*$%&*$%&*$%&*$%&*$%&*$%&*$%&*$%&*$%&*$%&*$%&*",
"$&=o$&=o$&=o$&=o$&=o$&=o$&=o$&=o$&=o$&=o$&=o$&=o$&=o$&=o$&=o$&=o$&=o$&=o",
" .Xo .Xo .Xo .Xo .Xo .Xo .Xo .Xo .Xo .Xo .Xo .Xo .Xo .Xo .Xo .Xo .Xo .Xo",
"O+@#O+@#O+@#O+@#O+@#O+@#O+@#O+@#O+@#O+@#O+@#O+@#O+@#O+@#O+@#O+@#O+@#O+@#",
"$%&*$%&*$%&*$%&*$%&*$%&*$%&*$%&*$%&*$%&*$%&*$%&*$%&*$%&*$%&*$%&*$%&*$%&*",
"$&=o$&=o$&=o$&=o$&=o$&=o$&=o$&=o$&=o$&=o$&=o$&=o$&=o$&=o$&=o$&=o$&=o$&=o",
" .Xo .Xo .Xo .Xo .Xo .Xo .Xo .Xo .Xo .Xo .Xo .Xo .Xo .Xo .Xo .Xo .Xo .Xo",
"O+@#O+@#O+@#O+@#O+@#O+@#O+@#O+@#O+@#O+@#O+@#O+@#O+@#O+@#O+@#O+@#O+@#O+@#",
"$%&*$%&*$%&*$%&*$%&*$%&*$%&*$%&*$%&*$%&*$%&*$%&*$%&*$%&*$%&*$%&*$%&*$%&*",
"$&=o$&=o$&=o$&=o$&=o$&=o$&=o$&=o$&=o$&=o$&=o$&=o$&=o$&=o$&=o$&=o$&=o$&=o",
" .Xo .Xo .Xo .Xo .Xo .Xo .Xo .Xo .Xo .Xo .Xo .Xo .Xo .Xo .Xo .Xo .Xo .Xo",
"O+@#O+@#O+@#O+@#O+@#O+@#O+@#O+@#O+@#O+@#O+@#O+@#O+@#O+@#O+@#O+@#O+@#O+@#",
"$%&*$%&*$%&*$%&*$%&*$%&*$%&*$%&*$%&*$%&*$%&*$%&*$%&*$%&*$%&*$%&*$%&*$%&*",
"$&=o$&=o$&=o$&=o$&=o$&=o$&=o$&=o$&=o$&=o$&=o$&=o$&=o$&=o$&=o$&=o$&=o$&=o",
" .Xo .Xo .Xo .Xo .Xo .Xo .Xo .Xo .Xo .Xo .Xo .Xo .Xo .Xo .Xo .Xo .Xo .Xo",
"O+@#O+@#O+@#O+@#O+@#O+@#O+@#O+@#O+@#O+@#O+@#O+@#O+@#O+@#O+@#O+@#O+@#O+@#",
"$%&*$%&*$%&*$%&*$%&*$%&*$%&*$%&*$%&*$%&*$%&*$%&*$%&*$%&*$%&*$%&*$%&*$%&*",
"$&=o$&=o$&=o$&=o$&=o$&=o$&=o$&=o$&=o$&=o$&=o$&=o$&=o$&=o$&=o$&=o$&=o$&=o",
" .Xo .Xo .Xo .Xo .Xo .Xo .Xo .Xo .Xo .Xo .Xo .Xo .Xo .Xo .Xo .Xo .Xo .Xo",
"O+@#O+@#O+@#O+@#O+@#O+@#O+@#O+@#O+@#O+@#O+@#O+@#O+@#O+@#O+@#O+@#O+@#O+@#",
"$%&*$%&*$%&*$%&*$%&*$%&*$%&*$%&*$%&*$%&*$%&*$%&*$%&*$%&*$%&*$%&*$%&*$%&*",
"$&=o$&=o$&=o$&=o$&=o$&=o$&=o$&=o$&=o$&=o$&=o$&=o$&=o$&=o$&=o$&=o$&=o$&=o",
" .Xo .Xo .Xo .Xo .Xo .Xo .Xo .Xo .Xo .Xo .Xo .Xo .Xo .Xo .Xo .Xo .Xo .Xo",
"O+@#O+@#O+@#O+@#O+@#O+@#O+@#O+@#O+@#O+@#O+@#O+@#O+@#O+@#O+@#O+@#O+@#O+@#",
"$%&*$%&*$%&*$%&*$%&*$%&*$%&*$%&*$%&*$%&*$%&*$%&*$%&*$%&*$%&*$%&*$%&*$%&*",
"$&=o$&=o$&=o$&=o$&=o$&=o$&=o$&=o$&=o$&=o$&=o$&=o$&=o$&=o$&=o$&=o$&=o$&=o",
" .Xo .Xo .Xo .Xo .Xo .Xo .Xo .Xo .Xo .Xo .Xo .Xo .Xo .Xo .Xo .Xo .Xo .Xo",
"O+@#O+@#O+@#O+@#O+@#O+@#O+@#O+@#O+@#O+@#O+@#O+@#O+@#O+@#O+@#O+@#O+@#O+@#",
"$%&*$%&*$%&*$%&*$%&*$%&*$%&*$%&*$%&*$%&*$%&*$%&*$%&*$%&*$%&*$%&*$%&*$%&*",
"$&=o$&=o$&=o$&=o$&=o$&=o$&=o$&=o$&=o$&=o$&=o$&=o$&=o$&=o$&=o$&=o$&=o$&=o"
};
