/* XPM */
static char *_3ad8c11e31e46c8fc9fc75c464aca79L2HeMroDkeUx5qGE[] = {
/* columns rows colors chars-per-pixel */
"72 72 139 2 ",
"   c None",
".  c #9A9A1D",
"X  c #A09E19",
"o  c #9FA018",
"O  c #ABAC0F",
"+  c #B0AF0B",
"@  c #AEB10B",
"#  c #B4B607",
"$  c #BCB603",
"%  c #B7B905",
"&  c #BCBE01",
"*  c #B3B30A",
"=  c #B7B80B",
"-  c #BCBB0B",
";  c #A5A514",
":  c #AAAA11",
">  c #A2A218",
",  c #B3B314",
"<  c #BBBB10",
"1  c #969620",
"2  c #C1BF02",
"3  c #BEC001",
"4  c #BFC00D",
"5  c #C3C301",
"6  c #C8C703",
"7  c #C7C801",
"8  c #CBCB01",
"9  c #C2C20A",
"0  c #CBCC0C",
"q  c #D1CF02",
"w  c #CFD001",
"e  c #D4D301",
"r  c #D7D800",
"t  c #DCDD00",
"y  c #DDDD01",
"u  c #DEDD01",
"i  c #DCDE00",
"p  c #DDDE00",
"a  c #DDDF00",
"s  c #DEDF00",
"d  c #DFDF01",
"f  c #DADA01",
"g  c #D5D608",
"h  c #D8D908",
"j  c #C1C110",
"k  c #E0DF01",
"l  c #E0DF02",
"z  c #DFE000",
"x  c #DFE100",
"c  c #E0E100",
"v  c #E1E100",
"b  c #E0E001",
"n  c #E1E001",
"m  c #E1E101",
"M  c #E2E101",
"N  c #E0E200",
"B  c #E1E200",
"V  c #E2E300",
"C  c #E3E300",
"Z  c #E2E201",
"A  c #E3E201",
"S  c #E1E202",
"D  c #E2E400",
"F  c #E3E400",
"G  c #E3E500",
"H  c #E4E400",
"J  c #E4E500",
"K  c #E4E401",
"L  c #E4E600",
"P  c #E5E600",
"I  c #E6E600",
"U  c #E6E700",
"Y  c #E6E502",
"T  c #E3E400",
"R  c #E8E700",
"E  c #E6E800",
"W  c #E7E800",
"Q  c #E6E900",
"!  c #E7E900",
"~  c #E6E804",
"^  c #E7E800",
"/  c #E8E800",
"(  c #E9E900",
")  c #EAE900",
"_  c #E8EA00",
"`  c #E9EA00",
"'  c #E9EB00",
"]  c #EAEA00",
"[  c #EAEB00",
"{  c #EBEB00",
"}  c #EAEC00",
"|  c #EBEC00",
" . c #EBED00",
".. c #ECEC00",
"X. c #ECED00",
"o. c #ECEE00",
"O. c #EDEE00",
"+. c #EDEF00",
"@. c #EEEE00",
"#. c #EEEF00",
"$. c #EFEF00",
"%. c #EAEA00",
"&. c #EEF000",
"*. c #EFF000",
"=. c #EEF100",
"-. c #F0F000",
";. c #F1F000",
":. c #F0F100",
">. c #F1F100",
",. c #F1F200",
"<. c #F1F300",
"1. c #F2F200",
"2. c #F2F300",
"3. c #F3F300",
"4. c #F4F300",
"5. c #F1F400",
"6. c #F3F400",
"7. c #F3F600",
"8. c #F4F400",
"9. c #F5F500",
"0. c #F4F600",
"q. c #F5F600",
"w. c #F5F700",
"e. c #F6F600",
"r. c #F6F700",
"t. c #F7F700",
"y. c #F5F900",
"u. c #F6F800",
"i. c #F7F800",
"p. c #F6F900",
"a. c #F7F900",
"s. c #F7FA00",
"d. c #F8F800",
"f. c #F8F900",
"g. c #F9F900",
"h. c #F8FA00",
"j. c #F9FA00",
"k. c #F8FB00",
"l. c #FAFA00",
/* pixels */
"                                                                                                                                                ",
"                                                                                                                                                ",
"                                                                                                                                                ",
"                                                                                                                                                ",
"                                                                                                                                                ",
"                                                                                                                                                ",
"                                                                                                                                                ",
"                                                                                                                                                ",
"                                                                                                                                                ",
"                                                                                                                                                ",
"                                                                                                                                                ",
"                                                                                                                                                ",
"                                                                                                                                                ",
"                                                                                                                                                ",
"                                                                                                                                                ",
"                                                                                                                                                ",
"                                                                                    . . . . .                                                   ",
"                                                                                    1 % # * ; o . 1 1                                           ",
"                                                                                    . & % & & & & # + ; X 1 1                                   ",
"                                                                                    o % & & & & & & & & & $ 1                                   ",
"                                                                                    1 1 . O 3 & & & & & % # 1                                   ",
"                                                                                          . & 3 & % : O + O 1                                   ",
"                                                                                        1 : & & & O 1 1 . 1                                     ",
"                                                                                        1 % & & & o                                             ",
"                                                                                      1 : 2 & & & >                                             ",
"                                                                                    1 : & & & & & ;                                             ",
"                                                                                  1 : 2 2 2 & & & O 1                                           ",
"                                                                                1 : 6 2 2 2 2 & & # 1                                           ",
"                                                                            1 > 2 6 6 6 6 5 2 2 2 & .                                           ",
"                                                                        1 1 < e r q q 6 6 6 5 2 2 2 ;                                           ",
"                                                                  1 1 ; 0 S S l k r r q q 6 6 5 2 2 * 1                                         ",
"                                      1 1 1         1 1 1 1 1 . , 0 ~ 6.....` Y k k k h e q q 6 6 5 & 1                                         ",
"                                  1 ; O : : : > > ; < - j h ~ 8.u.u.r.7.7.-.#.~ R Y S u f r q 8 6 6 2 >                                         ",
"                                  1 & & 2 & 5 7 q e u S } ..6.8.r.r.u.u.r.4.7.-.{ ` R A l f f q q 6 6 :                                         ",
"                                  1 & & & & 5 5 8 e f S ` } $.8.r.r.r.u.u.d.r.-.<.$.` ` A S f f q q 6 + 1                                       ",
"                                  1 * & & & 2 5 6 q f z Y { <.<.r.r.d.d.d.d.d.r.8.<.....R A l f f q 8 - 1                                       ",
"                                    o # & & 2 5 6 q r f S ` <.$.7.r.d.d.l.l.k.u.8.6.<...} ~ S z f e q 2 1                                       ",
"                                      o * & 3 5 8 8 e f S ` ..<.-.r.u.d.l.l.u.u.u.u.6.<...` Y S f f f 6 1                                       ",
"                                        1 > + = 6 6 e f u l g 0 7.r.r.r.u.d.u.u.8.8.6.*...` ~ D l f e q 1                                       ",
"                                            1 1 1 1 1 1 1 1 1 1 0 -.7.u.u.u.r.r.8.6.*.*...} G D l f r 8 1                                       ",
"                                                              1 ~ $.*.8.8.8.8.8.8.<.....Q Q G z i r e 9 1                                       ",
"                                                          1 , g R { ..*.<.<.8.8.<.<...} Q G D x r e e 4 1                                       ",
"                                                      1 > 2 h f D Y ` ....*.*.*...} } ~ G x x f e e 8 < 1                                       ",
"                                                  1 > = 8 e r f i z Y ~ ` } } ` } ~ ~ Y x f f r w w 6 , 1                                       ",
"                                            1 1 ; # 5 5 7 8 w e r f z D D ~ ~ ~ ~ 0 D D i r e w 8 7 7 o                                         ",
"                                          1 : % & & 5 5 7 7 8 8 e r r x z z z g , . 9 f r r w w 8 7 3 .                                         ",
"                                        1 : & & & 3 & 5 2 5 7 7 8 w e r i i - 1   1 4 r w w 8 7 7 7 * 1                                         ",
"                                        1 & & & & & & & 3 3 5 5 7 8 8 w e , 1     1 8 w 8 8 7 7 3 3 ;                                           ",
"                                        1 1 & & & & 3 & 3 3 3 5 7 7 8 - > 1       ; w 8 7 7 7 5 3 3 1                                           ",
"                                          1 * & 3 & & 3 & 3 3 3 & * ; 1         1 * 7 7 7 5 3 3 3 : 1                                           ",
"                                            1 ; @ @ # & * # O ; . 1             1 9 7 3 3 3 3 3 * 1                                             ",
"                                                . 1 1 1 1 1 1                   o 5 3 3 3 3 3 % o                                               ",
"                                                                                o 3 3 3 3 3 & ;                                                 ",
"                                                                                o 3 3 3 3 # ; 1                                                 ",
"                                                                                . # 3 & : 1                                                     ",
"                                                                                  1 1 1 1                                                       ",
"                                                                                                                                                ",
"                                                                                                                                                ",
"                                                                                                                                                ",
"                                                                                                                                                ",
"                                                                                                                                                ",
"                                                                                                                                                ",
"                                                                                                                                                ",
"                                                                                                                                                ",
"                                                                                                                                                ",
"                                                                                                                                                ",
"                                                                                                                                                ",
"                                                                                                                                                ",
"                                                                                                                                                ",
"                                                                                                                                                ",
"                                                                                                                                                ",
"                                                                                                                                                "
};
