/* XPM */
static char *e01976eee3dc44edf3d02673f1f7e523InbSsXCCA0ebOF8y[] = {
/* columns rows colors chars-per-pixel */
"72 72 29 1 ",
"  c None",
". c #272523",
"X c #272524",
"o c #6E6F00",
"O c #6F6F00",
"+ c #837D00",
"@ c #837E00",
"# c #8C8B00",
"$ c #9E9A00",
"% c #9E9B00",
"& c #ADA900",
"* c #AEA900",
"= c #BCB800",
"- c #CDC700",
"; c #CEC700",
": c #DCD500",
"> c #DDD500",
", c #E8E200",
"< c #E9E200",
"1 c #E9E300",
"2 c #F0F100",
"3 c #F0F200",
"4 c #F5F900",
"5 c #FAFF00",
"6 c #FBFF06",
"7 c #FBFF0B",
"8 c #FBFF16",
"9 c #FCFF23",
"0 c #FCFF24",
/* pixels */
"                                                                        ",
"                                                                        ",
"                                                                        ",
"                                                                        ",
"                                                                        ",
"                              X.XXXXX..XX                               ",
"                          X.XXX.XXX..XXX.XXXX                           ",
"                       XX.XXXXXXXXX.XXXX.XX.X.X.                        ",
"                     X.X..X.XXXXX.XX.X...XX.X.XX.X                      ",
"                   ..XXXXX...XXXXXXX.XXXXX.XXX.XXX..                    ",
"                  XXXXXX.X.X...XXXXXX.X..XX.XXX.X....                   ",
"                 .....XXX.XXX$:459999853;#XX.XXXX.XX.X                  ",
"               XXX.XXXX.XX$38900009090000083#X.XX.XX..XX                ",
"              XXXXX.XXX.=700000999900009000095$XXX.XX.X..               ",
"             .XXXX.XXX$6000090000000090000090005+.XXX.X.X.              ",
"            XXXXXXXXX,000090900000990009000009090;...XXXXX.             ",
"            X.X.XXXo6009000000900000090009099900004oXXXXX..             ",
"           XXX.X..#890000000099090000000000900000006oXXX.XXX            ",
"          ..X.XXX#89909009990990999000000090990090096o.XX.XX.           ",
"         XX.XXXXo8999990990000090000000009000009000006oXX.XXX           ",
"         ..X.XXX699090090990090000009090009000000000094XXXXXX.          ",
"        .X.X.XX,090009000000000090000900900900000090009;XX.XX.X         ",
"        ..XXXX$00000000900900090000000090000000990000008+XXX.XX         ",
"       XXXX.XX6900090999009000000099900000090990000000904XXXXXXX        ",
"       ..XXXX=0000900000900000000099090900909000000900900$XX..X.        ",
"       .XXXXX700900000009090000999009000000900099999000094XXX.X.        ",
"      XX..XX$99909098=XX=89000000000000000098=XX=800990009+.X.XXX       ",
"      XXXXXX39990090=.X..=000000000090090009=X.XX=00009909;XXX.X.       ",
"      XXXX..89009000.X.XX.090990099099000990X.XXX.000000006..XXX.       ",
"      XX.XX$00000090XXX.X.009909090009000090XX..XX090000000o.X.XX       ",
"     .X.XXX:09000900=XXXX=900090000000900000=X.XX=900090990*XXXXXX      ",
"     XXX.XX4000090008=XX=80990000000099909098=XX=8990900009:XX..XX      ",
"     X...XX5900009009009000000090099099000000990900090000094XXX.XX      ",
"     XXX.XX9000090009000009009000000000000000090900909000005X.X..X      ",
"     XXX..X0900009090900090009900990090090000900900009090905XXXXXX      ",
"     X.X..X9000900090990009999009999900090000000990000000995..XXX.      ",
"     X.XXXX0009009909909000000000000900990000999000900009905...X.X      ",
"     XX..X.8090000009000000900009900000999009000000900090095.XXXX.      ",
"     XXXXX.500008$XX$89090000099990900999900000996$..=890994XXXX.X      ",
"     .X....30000$.XXX=090009099099009909900099000#X.X.;0909:X.XX..      ",
"     .XXXXX;9909..XXX.000000090000900000900009000XXXX.+9090$XXX.X.      ",
"      XX.XX#0090XXXX.X000000000000000090099090995X.XX.+0009o.X.XX       ",
"      .XX.X.8990oXXX..49000909009000000000009990,..X.X$0006XXXXXX       ",
"      X.XXX.3009$XXXXX#0900999000009999099009008oX.XX.;000;X.XXXX       ",
"      XXX.XX#900,..XXXX=00990099099909009000000*...X..4009o....XX       ",
"       .XX.XX5008OX..XXX=000000990000909009908$X.XXXX+0003XX.XXX        ",
"       XXX.XX$000:XX.XXX.#5090000990090000003+.XXXXXX4099+XXX..X        ",
"       XXXXXXX5990#X..XXXXX$399009000999083+XXXX.X..*9093XXX.X.         ",
"        .X.XXX+9007O...XXXX.XX$:4555554:$XX.XXXX.XX#8098oX.XX.X         ",
"        XXXX...;0006OXXXX..X.XX.XXXX..XXXX.XXXXXXX#8000*.XXXX..         ",
"         XXXXXXX49998#X.XXXXXXXXXX.XXXX.XX..XXXX.*8909,.XXX.X.          ",
"         .XXXXXXo60090:oXX.XXXX.XX..XXXXXXXXX.Xo300004XXXXXXX           ",
"          X.XXXX.o600908;oXXXX.X.X.XX..XXXXXXO:800006oXXXXXXX           ",
"           XXXXXXXo60909082*.X.XX.XXX....Xo*39099004o..X.XXX            ",
"            XX.XXX.o4090900905:=$$$$$$$;,500000000,XXX.X.XX             ",
"            XX.XX.XXX;890009009090000000900900008*.XXX.XXX              ",
"             XXXXX...X+4000909000990009000090003oXX.XXXXX               ",
"              XXX..XXXXX$400990990900000000093+X..X.XX.X                ",
"               X.XXX.XXX.X+;609090000900906;OXX.XXXX..X                 ",
"                 X.X.XX.XX.X.o*:4555554:$OX.XXX.XXXXXX                  ",
"                  .XXX..XX..XXXXXXXX.XX.XXXXXXXXXXXXX                   ",
"                    .XX..XX.XXXXXXXX.XX.XXXX..XXXXX                     ",
"                     XX.XXXX..X..XX.X.XXX.XXX..X.X                      ",
"                        XXX.XXXX.XX.....XXXXXX.                         ",
"                          XXXXXXX.X.XXX.XXX.X                           ",
"                              X.X..XX.X.X                               ",
"                                                                        ",
"                                                                        ",
"                                                                        ",
"                                                                        ",
"                                                                        ",
"                                                                        "
};
