/* XPM */
static char *dbbd0b6926a0450592d9a2c9b2412dc2OMik3L4JFSKrE9mK[] = {
/* columns rows colors chars-per-pixel */
"72 72 18 1 ",
"  c black",
". c #0F0200",
"X c #1B1B1B",
"o c #2B0500",
"O c #3A0800",
"+ c #282828",
"@ c gray21",
"# c #434343",
"$ c #515151",
"% c gray37",
"& c gray42",
"* c #D91D00",
"= c #E81F00",
"- c #DD6654",
"; c #AFAFAF",
": c #CACACA",
"> c #D7D7D7",
", c white",
/* pixels */
"                                                                        ",
"                                                                        ",
"                                                                        ",
"   >>>>>>>>>>>>>>>>>>>>>>>>>>>>>>>>>>>>>>>>>>>>>>>>>>>>>>>>>>>>>>>>>>   ",
"   >>>>>>>>>>>>>>>>>>>>>>>>>>>>>>>>>>>>>>>>>>>>>>>>>>>>>>>>>>>>>>>>>>   ",
"   >>>>>>>>>>>>>>>>>>>>>>>>>>>>>>>>>>>>>>>>>>>>>>>>>>>>>>>>>>>>>>>>>>   ",
"   >>>>>>>>>>>>>>>>>>>>>>>>>>>>>>>>>>>>>>>>>>>>>>>>>>>>>>>>>>>>>>>>>>   ",
"   >>>>>>>>>>>>>>>>>>>>>>>>>>>>>>>>>>>>>>>>>>>>>>>>>>>>>>>>>>>>>>>>>>   ",
"   >>>>>>>>>>>>>>>>>>>>>>>>>>>>>>>>>>>>>>>>>>>>>>>>>>>>>>>>>>>>>>>>>>   ",
"   >>>>>>>>>>>>>>>>>>>>>>>>>>>>>>>>>>>>>>>>>>>>>>>>>>>>>>>>>>>>>>>>>>   ",
"   >>>>>>>>>>>>>>>>>>>>>>>>>>>>>>>>>>>>>>>>>>>>>>>>>>>>>>>>>>>>>>>>>>   ",
"   >>>>>>>>>>>>>>>>>>>>>>>>>>>>>>>>>>>>>>>>>>>>>>>>>>>>>>>>>>>>>>>>>>   ",
"   >>>>>>>>>>>>>>>>>>>>>>>>>>>>>>>>>>>>>>>>>>>>>>>>>>>>>>>>>>>>>>>>>>   ",
"   >>>>>>>>>>>>>>>>>>>>>>>>>>>>>>>>>>>>>>>>>>>>>>>>>>>>>>>>>>>>>>>>>>   ",
"   >>>>>>>>>>>>>>>>>>>>>>>>>>>>>>>>>>>>>>>>>>>>>>>>>>>>>>>>>>>>>>>>>>   ",
"   >>>>>>>>>>>>>>>>>>>>>>>>>>>>>>>>>>>>>>>>>>>>>>>>>>>>>>>>>>>>>>>>>>   ",
"   >>>>>>>>>>>>>>>>>>>>>>>>>>>>>>>>>>>>>>>>>>>>>>>>>>>>>>>>>>>>>>>>>>   ",
"   >>>>>>>>>>>>>>>>>>>>>>>>>>>>>>>>>>>>>>>>>>>>>>>>>>>>>>>>>>>>>>>>>>   ",
"   >>>>>>>>>>>>>>>>>>>>>>>>>>>>>>>>>>>>>>>>>>>>>>>>>>>>>>>>>>>>>>>>>>   ",
"   >>>>>>>>>>>>>>>>>>>>>>>>>>>>>>;&&&&;>>>>>>>>>>>>>>>>>>>>>>>>>>>>>>   ",
"   >>>>>>>>>>>>>>>>>>>>>>>>>>>>:#      #:>>>>>>>>>>>>>>>>>>>>>>>>>>>>   ",
"   >>>>>>>>>>>>>>>>>>>>>>>>>>>:+        +:>>>>>>>>>>>>>>>>>>>>>>>>>>>   ",
"   >>>>>>>>>>>>>>>>>>>>>>>>>>>#   .OO.   #>>>>>>>>>>>>>>>>>>>>>>>>>>>   ",
"   >>>>>>>>>>>>>>>>>>>>>>>>>>;   o>>,-o   ;>>>>>>>>>>>>>>>>>>>>>>>>>>   ",
"   >>>>>>>>>>>>>>>>>>>>>>>>>>&  .>>,-=*.  &>>>>>>>>>>>>>>>>>>>>>>>>>>   ",
"   >>>>>>>>>>>>>>>>>>>>>>>>>>&  O>,-===O  %>>>>>>>>>>>>>>>>>>>>>>>>>>   ",
"   >>>>>>>>>>>>>>>>>>>>>>>>>>&  O--====O  $>>>>>>>>>>>>>>>>>>>>>>>>>>   ",
"   >>>>>>>>>>>>>>>>>>>>>>>>>>&  .*====*.  &>>>>>>>>>>>>>>>>>>>>>>>>>>   ",
"   >>>>>>>>>>>>>>>>>>>>>>>>>>;   o*==*o   ;>>>>>>>>>>>>>>>>>>>>>>>>>>   ",
"   >>>>>>>>>>>>>>>>>>>>>>>>>>>#   .OO.   #>>>>>>>>>>>>>>>>>>>>>>>>>>>   ",
"   >>>>>>>>>>>>>>>>>>>>>>>>>>>:+        +:>>>>>>>>>>>>>>>>>>>>>>>>>>>   ",
"   >>>>>>>>>>>>>>>>>>>>>>>>>>>>:#      #:>>>>>>>>>>>>>>>>>>>>>>>>>>>>   ",
"   >>>>>>>>>>>>>>>>>>>>>>>>>>>>>>;@  X;>>>>>>>>>>>>>>>>>>>>>>>>>>>>>>   ",
"   >>>>>>>>>>>>>>>>>>>>>>>>>>>>>>>&  @>>>>>>>>>>>>>>>>>>>>>>>>>>>>>>>   ",
"   >>>>>>>>>>>>>>>>>>>>>>>>>>>>>>>&  @>>>>>>>>>>>>>>>>>>>>>>>>>>>>>>>   ",
"   >>>>>>>>>>>>>>>>>>>>>>>>>>>>>>>&  @>>>>>>>>>>>>>>>>>>>>>>>>>>>>>>>   ",
"   >>>>>>>>>>>>>>>>>>>>>>>>>>>>>>>&  @>>>>>>>>>>>>>>>>>>>>>>>>>>>>>>>   ",
"   >>>>>>>>>>>>>>>>>>>>>>>>>>>>>>>&  @>>>>>>>>>>>>>>>>>>>>>>>>>>>>>>>   ",
"   >>>>>>>>>>>>>>>>>>>>>>>>>>>>>>>&  @>>>>>>>>>>>>>>>>>>>>>>>>>>>>>>>   ",
"   >>>>>>>>>>>>>>>>>>>>>>>>>>>>>>>&  @>>>>>>>>>>>>>>>>>>>>>>>>>>>>>>>   ",
"   >>>>>>>>>>>>>>>>>>>>>>>>>>>>>>>&  @>>>>>>>>>>>>>>>>>>>>>>>>>>>>>>>   ",
"   >>>>>>>>>>>>>>>>>>>>>>>>>>>>>>>&  @>>>>>>>>>>>>>>>>>>>>>>>>>>>>>>>   ",
"   >>>>>>>>>>>>>>>>>>>>>>>>>>>>>>>&  @>>>>>>>>>>>>>>>>>>>>>>>>>>>>>>>   ",
"   >>>>>>>>>>>>>>>>>>>>>>>>>>>>>>>&  @>>>>>>>>>>>>>>>>>>>>>>>>>>>>>>>   ",
"   >>>>>>>>>>>>>>>>>>>>>>>>>>>>>>>&  @>>>>>>>>>>>>>>>>>>>>>>>>>>>>>>>   ",
"   >>>>>>>>>>>>>>>>>>>>>>>>>>>>>>>&  @>>>>>>>>>>>>>>>>>>>>>>>>>>>>>>>   ",
"   >>>>>>>>>>>>>>>>>>>>>>>>>>>>>>>&  @>>>>>>>>>>>>>>>>>>>>>>>>>>>>>>>   ",
"   >>>>>>>>>>>>>>>>>>>>>>>>>>>>>>>&  @>>>>>>>>>>>>>>>>>>>>>>>>>>>>>>>   ",
"   >>>>>>>>>>>>>>>>>>>>>>>>>>>>>>>&  @>>>>>>>>>>>>>>>>>>>>>>>>>>>>>>>   ",
"   >>>>>>>>>>>>>>>>>>>>>>>>>>>>>>>&  @>>>>>>>>>>>>>>>>>>>>>>>>>>>>>>>   ",
"   >>>>>>>>>>>>>>>>>>>>>>>>>>>>>>>&  @>>>>>>>>>>>>>>>>>>>>>>>>>>>>>>>   ",
"   >>>>>>>>>>>>>>>>>>>>>>>>>>>>>>>&  %>>>>>>>>>>>>>>>>>>>>>>>>>>>>>>>   ",
"   >>>>>>>>>>>>>>>>>>>>>>>>>>>>>>>:%%:>>>>>>>>>>>>>>>>>>>>>>>>>>>>>>>   ",
"   >>>>>>>>>>>>>>>>>>>>>>>>>>>>>>>>>>>>>>>>>>>>>>>>>>>>>>>>>>>>>>>>>>   ",
"   >>>>>>>>>>>>>>>>>>>>>>>>>>>>>>>>>>>>>>>>>>>>>>>>>>>>>>>>>>>>>>>>>>   ",
"   >>>>>>>>>>>>>>>>>>>>>>>>>>>>>>>>>>>>>>>>>>>>>>>>>>>>>>>>>>>>>>>>>>   ",
"   >>>>>>>>>>>>>>>>>>>>>>>>>>>>>>>>>>>>>>>>>>>>>>>>>>>>>>>>>>>>>>>>>>   ",
"   >>>>>>>>>>>>>>>>>>>>>>>>>>>>>>>>>>>>>>>>>>>>>>>>>>>>>>>>>>>>>>>>>>   ",
"   >>>>>>>>>>>>>>>>>>>>>>>>>>>>>>>>>>>>>>>>>>>>>>>>>>>>>>>>>>>>>>>>>>   ",
"   >>>>>>>>>>>>>>>>>>>>>>>>>>>>>>>>>>>>>>>>>>>>>>>>>>>>>>>>>>>>>>>>>>   ",
"   >>>>>>>>>>>>>>>>>>>>>>>>>>>>>>>>>>>>>>>>>>>>>>>>>>>>>>>>>>>>>>>>>>   ",
"   >>>>>>>>>>>>>>>>>>>>>>>>>>>>>>>>>>>>>>>>>>>>>>>>>>>>>>>>>>>>>>>>>>   ",
"   >>>>>>>>>>>>>>>>>>>>>>>>>>>>>>>>>>>>>>>>>>>>>>>>>>>>>>>>>>>>>>>>>>   ",
"   >>>>>>>>>>>>>>>>>>>>>>>>>>>>>>>>>>>>>>>>>>>>>>>>>>>>>>>>>>>>>>>>>>   ",
"   >>>>>>>>>>>>>>>>>>>>>>>>>>>>>>>>>>>>>>>>>>>>>>>>>>>>>>>>>>>>>>>>>>   ",
"   >>>>>>>>>>>>>>>>>>>>>>>>>>>>>>>>>>>>>>>>>>>>>>>>>>>>>>>>>>>>>>>>>>   ",
"   >>>>>>>>>>>>>>>>>>>>>>>>>>>>>>>>>>>>>>>>>>>>>>>>>>>>>>>>>>>>>>>>>>   ",
"   >>>>>>>>>>>>>>>>>>>>>>>>>>>>>>>>>>>>>>>>>>>>>>>>>>>>>>>>>>>>>>>>>>   ",
"   >>>>>>>>>>>>>>>>>>>>>>>>>>>>>>>>>>>>>>>>>>>>>>>>>>>>>>>>>>>>>>>>>>   ",
"                                                                        ",
"                                                                        ",
"                                                                        "
};
