/* XPM */
static char *result[] = {
/* columns rows colors chars-per-pixel */
"32 32 11 1 ",
"  c #753862",
". c #6C335A",
"X c #592A4B",
"o c #592A4C",
"O c #6C335B",
"+ c #6E345C",
"@ c #733760",
"# c #653055",
"$ c #57294A",
"% c #602D51",
"& c #522646",
/* pixels */
"                       .XoO     ",
"                       .XoO     ",
"                       .XoO     ",
".......+@@+..+@      @+#$$#.....",
"XXXXXXX%++%XX%+      +%$&&$XXXXX",
"ooooooo%++%oo%+      +%ooooooooo",
"OOOOOOO+@@+OO+@      @+OOOOOOOOO",
"                                ",
"                                ",
"                                ",
"                                ",
"         @++@                   ",
"         +%%+                   ",
".........#$$#..+@@+..+@      @+.",
"XXXXXXXXX$&&$XX%++%XX%+      +%X",
"o$&&$oooooooooo%++%oo%+      +%o",
"O#$$#OOOOOOOOOO+@@+OO+@      @+O",
" +%%+                           ",
" @++@                           ",
"                                ",
"                                ",
"                                ",
"                                ",
".....+@    @+...................",
"XXXXX%+    +%XXXXXXXXXXXXXXXXXXX",
"ooooo%+    +%oooooooooo$&&$ooooo",
"OOOOO+@    @+OOOOOOOOOO#$$#OOOOO",
"                       +%%+     ",
"                       @++@     ",
"                                ",
"                                ",
"                                "
};
