/* XPM */
static char *result[] = {
/* columns rows colors chars-per-pixel */
"32 32 3 1 ",
"  c #3C0808",
". c #680E0E",
"X c #BC6A6A",
/* pixels */
" .............................. ",
".XXXXXXXXXXXXXX..XXXXXXXXXXXXXX.",
".XXXXXXXXXXXXXX..XXXXXXXXXXXXXX.",
".XXXXXXXXXXXXXX..XXXXXXXXXXXXXX.",
".XXXXXXXXXXXXXX..XXXXXXXXXXXXXX.",
".XXXXXXXXXXXXXX..XXXXXXXXXXXXXX.",
".XXXXXXXXXXXXXX..XXXXXXXXXXXXXX.",
".XXXXXXXXXXXXXX..XXXXXXXXXXXXXX.",
".XXXXXXXXXXXXXX..XXXXXXXXXXXXXX.",
".XXXXXXXXXXXXXX..XXXXXXXXXXXXXX.",
".XXXXXXXXXXXXXX..XXXXXXXXXXXXXX.",
".XXXXXXXXXXXXXX..XXXXXXXXXXXXXX.",
".XXXXXXXXXXXXXX..XXXXXXXXXXXXXX.",
".XXXXXXXXXXXXXX..XXXXXXXXXXXXXX.",
".XXXXXXXXXXXXXX..XXXXXXXXXXXXXX.",
"...............  ...............",
"...............  ...............",
".XXXXXXXXXXXXXX..XXXXXXXXXXXXXX.",
".XXXXXXXXXXXXXX..XXXXXXXXXXXXXX.",
".XXXXXXXXXXXXXX..XXXXXXXXXXXXXX.",
".XXXXXXXXXXXXXX..XXXXXXXXXXXXXX.",
".XXXXXXXXXXXXXX..XXXXXXXXXXXXXX.",
".XXXXXXXXXXXXXX..XXXXXXXXXXXXXX.",
".XXXXXXXXXXXXXX..XXXXXXXXXXXXXX.",
".XXXXXXXXXXXXXX..XXXXXXXXXXXXXX.",
".XXXXXXXXXXXXXX..XXXXXXXXXXXXXX.",
".XXXXXXXXXXXXXX..XXXXXXXXXXXXXX.",
".XXXXXXXXXXXXXX..XXXXXXXXXXXXXX.",
".XXXXXXXXXXXXXX..XXXXXXXXXXXXXX.",
".XXXXXXXXXXXXXX..XXXXXXXXXXXXXX.",
".XXXXXXXXXXXXXX..XXXXXXXXXXXXXX.",
" .............................. "
};
