/* XPM */
static char *result[] = {
/* columns rows colors chars-per-pixel */
"32 32 132 2 ",
"   c black",
".  c #020202",
"X  c #070703",
"o  c gray2",
"O  c #060606",
"+  c #080802",
"@  c #0C0C00",
"#  c gray3",
"$  c #090909",
"%  c #131300",
"&  c #141400",
"*  c #2E2E0A",
"=  c #212115",
"-  c #202020",
";  c #222222",
":  c #252525",
">  c gray15",
",  c #2E2E24",
"<  c #2C2C27",
"1  c #282828",
"2  c #313131",
"3  c #3E3E33",
"4  c gray24",
"5  c #3F3F3F",
"6  c #4D4D06",
"7  c #48480D",
"8  c #5C5C00",
"9  c #5F5F04",
"0  c #7F7F00",
"q  c #7B7B04",
"w  c #79791B",
"e  c #595937",
"r  c gray26",
"t  c gray33",
"y  c #5B5B5B",
"u  c #6F6F42",
"i  c #747440",
"p  c #747454",
"a  c #6A6A6A",
"s  c gray44",
"d  c #B3B300",
"f  c #B4B407",
"g  c #BFBF00",
"h  c #BEBE09",
"j  c #B4B416",
"k  c #8B8B26",
"l  c #86862A",
"z  c #97972E",
"x  c #858533",
"c  c #AFAF24",
"v  c #B2B220",
"b  c #A6A632",
"n  c #AFAF30",
"m  c #A8A837",
"M  c #BDBD37",
"N  c #C0C000",
"B  c #C7C700",
"V  c #C8C800",
"C  c #CACA00",
"Z  c #CCCC00",
"A  c #CECE00",
"S  c #D3D300",
"D  c #D4D400",
"F  c #D7D704",
"G  c #D8D800",
"H  c #D9D900",
"J  c #DBDB00",
"K  c #DCDC00",
"L  c #DDDD00",
"P  c #DEDE00",
"I  c #C9C916",
"U  c #D3D316",
"Y  c #DDDD12",
"T  c #DCDC14",
"R  c #DADA18",
"E  c #E0E000",
"W  c #E1E100",
"Q  c #E2E200",
"!  c #E4E400",
"~  c #E6E600",
"^  c #E1E107",
"/  c #E8E800",
"(  c #EBEB00",
")  c #EDED00",
"_  c #EEEE00",
"`  c #EAEA09",
"'  c #F0F000",
"]  c #F1F100",
"[  c #F2F200",
"{  c #F5F500",
"}  c #F7F700",
"|  c #F1F106",
" . c #F8F800",
".. c #F9F900",
"X. c #FAFA00",
"o. c #FCFC00",
"O. c #FDFD00",
"+. c #FEFE00",
"@. c yellow",
"#. c #FDFD02",
"$. c #FCFC03",
"%. c #FAFA05",
"&. c #F9F906",
"*. c #EEEE11",
"=. c #E8E815",
"-. c #EBEB14",
";. c #EAEA15",
":. c #E9E916",
">. c #E2E21E",
",. c #C6C620",
"<. c #C1C12B",
"1. c #D7D725",
"2. c #DEDE22",
"3. c #D6D629",
"4. c #CCCC33",
"5. c #C6C63A",
"6. c #9F9F47",
"7. c #909056",
"8. c #9D9D53",
"9. c #A0A044",
"0. c #B1B142",
"q. c #B9B947",
"w. c #B1B14D",
"e. c #A6A65A",
"r. c #A8A858",
"t. c #808074",
"y. c #8F8F70",
"u. c #83837A",
"i. c #84847A",
"p. c #85857A",
"a. c #86867A",
"s. c None",
/* pixels */
"s.s.s.s.s.s.s.s.s.s.s.s.s.s.s.s.s.s.s.s.s.s.s.s.s.s.s.s.s.s.s.s.",
"s.s.s.s.s.s.s.s.s.s.s.s.s.s.s.s.s.s.s.s.s.s.s.s.s.s.s.s.s.s.s.s.",
"s.s.s.s.s.s.s.s.s.s.s.s.s.s.s.s.s.s.s.s.s.s.s.s.s.s.s.s.s.s.s.s.",
"s.s.s.s.s.s.s.s.s.s.s.s.s.s.s.s.s.s.s.s.s.s.s.s.@.@.s.s.s.s.s.s.",
"s.s.s.s.s.s.s.s.s.s.s.s.s.s.s.s.s..   s.s.s.s.s.+.@.s.  s.s.s.s.",
"s.s.s.s.s.s.s.s.s.s.s.s.s.s.@.G z t o   s.s.s.g ( @.s.  s.s.s.s.",
"s.s.s.s.s.s.s.s.s.s.s.s.s.s.@.G b a O   2 e.o.~ { d     s.s.s.s.",
"s.s.s.s.s.s.s.s.s.s.s.s.s.s.@.~ ,.9.9 8 l 5.@.@.>.w     s.s.s.s.",
"s.s.s.s.s.s.s.s.s.s.s.s.s.@.@.@.@.@.@.@.@.@.+.} 6.5     s.s.s.s.",
"s.s.s.s.s.s.s.s.s.s.s.s.@.@.@.@.@.@.@.@.@.@.X.Z 6 O   s.s.s.s.s.",
"s.s.s.s.s.s.s.s.s.s.s.@.@.@.@.@.@.} D 0.e.e.8.7 &   s.s.s.s.s.s.",
"s.s.s.s.s.s.s.s.s.s.@.@.} W X.@.@...E n u r 4 $   s.s.s.s.s.s.s.",
"s.s.s.s.s.s.s.s.s.@.@.@.` v | @.@.@.@.K 0 * - O s.s.s.s.s.s.s.s.",
"s.s.s.s.s.s.s.s.@.@.@.$.1.t.=.@.#.%.@.@.E c u.s.s.s.s.s.s.s.s.s.",
"s.s.s.s.s.s.s.@.@.@.@.4.p = F @.3.r.%.@...^ j s.s.s.s.s.s.s.s.s.",
"s.s.s.s.N [ @.@.X.J M i : @ S @.T m w.;.@. .! B s.s.s.s.s.s.s.s.",
"s.s.s._ H } ] Y <.q e 1   % Q @.' I i.q.R ) o.L A s.s.s.s.s.s.s.",
"s.s.s.&.:.:.h k y #       s.@.@.@.:.a.s x f -.$.L C s.s.s.s.s.s.",
"s.s.s.s.a.a.3 + o       s.s.@.@.@.:.a.> X , y.*.O.o.s.s.s.s.s.s.",
"s.s.s.s.s.s.s.s.s.s.s.s.s.s.@.@.@.:.a.;   s.< 7.2.@.s.s.s.s.s.s.",
"s.s.s.s.s.s.s.s.s.s.s.s.s.s.P [ @.:.a.; s.s.s.s.s.s.s.s.s.s.s.s.",
"s.s.s.s.s.s.s.s.s.s.s.s.s.s.g ( @.:.a.; s.s.s.s.s.s.s.s.s.s.s.s.",
"s.s.s.s.s.s.s.s.s.s.s.s.s.s.s.X.o.:.a.; s.s.s.s.s.s.s.s.s.s.s.s.",
"s.s.s.s.s.s.s.s.s.s.s.s.s.s.s.V L :.a.; s.s.s.s.s.s.s.s.s.s.s.s.",
"s.s.s.s.s.s.s.s.s.s.s.s.s.s.s.s./ :.a.; s.s.s.s.s.s.s.s.s.s.s.s.",
"s.s.s.s.s.s.s.s.s.s.s.s.s.s.s.s.s.U p.2 s.s.s.s.s.s.s.s.s.s.s.s.",
"s.s.s.s.s.s.s.s.s.s.s.s.s.s.s.s.s.j u.s.s.s.s.s.s.s.s.s.s.s.s.s.",
"s.s.s.s.s.s.s.s.s.s.s.s.s.s.s.s.s.s.s.s.s.s.s.s.s.s.s.s.s.s.s.s.",
"s.s.s.s.s.s.s.s.s.s.s.s.s.s.s.s.s.s.s.s.s.s.s.s.s.s.s.s.s.s.s.s.",
"s.s.s.s.s.s.s.s.s.s.s.s.s.s.s.s.s.s.s.s.s.s.s.s.s.s.s.s.s.s.s.s.",
"s.s.s.s.s.s.s.s.s.s.s.s.s.s.s.s.s.s.s.s.s.s.s.s.s.s.s.s.s.s.s.s.",
"s.s.s.s.s.s.s.s.s.s.s.s.s.s.s.s.s.s.s.s.s.s.s.s.s.s.s.s.s.s.s.s."
};
