/* XPM */
static char *result[] = {
/* columns rows colors chars-per-pixel */
"32 32 52 1 ",
"  c black",
". c gray45",
"X c gray67",
"o c #4DABAB",
"O c #007373",
"+ c #CBFFFF",
"@ c #8BFFFF",
"# c #8BB9B9",
"$ c #3FEFEF",
"% c #009898",
"& c cyan",
"* c #00FCFC",
"= c #00CDCD",
"- c #004C4C",
"; c #00CECE",
": c #00DCDC",
"> c #008080",
", c #00FEFE",
"< c #00EFEF",
"1 c #002B2B",
"2 c #000202",
"3 c #00C9C9",
"4 c #003131",
"5 c #000909",
"6 c #005D5D",
"7 c #00B8B8",
"8 c #004F4F",
"9 c #000505",
"0 c #005C5C",
"q c #00A0A0",
"w c #009F9F",
"e c #005B5B",
"r c #00BEBE",
"t c #005454",
"y c #001212",
"u c #004A4A",
"i c #00AAAA",
"p c #00BFBF",
"a c #006565",
"s c #001313",
"d c #003333",
"f c #00F1F1",
"g c #007979",
"h c #008383",
"j c #008484",
"k c #004444",
"l c #005858",
"z c #003232",
"x c #009696",
"c c #00F0F0",
"v c #00CCCC",
"b c #005656",
/* pixels */
"                                ",
" .XXXXXXXXXXXXXXXXXXXXXXXXXXXoO ",
" X+@@@@@@@@@@@@##@@@@@@@@@@@@$% ",
" X@&&&&&&&&&&*=--;*&&&&&&&&&&:> ",
" X@&&&&&&&&&,<1221<,&&&&&&&&&:> ",
" X@&&&&&&&&&34566543&&&&&&&&&:> ",
" X@&&&&&&&&7890qwe987&&&&&&&&:> ",
" X@&&&&&&&rtyuippiuytp&&&&&&&:> ",
" X@&&&&&&&asdppppppdsa&&&&&&&:> ",
" X@&&&&&&&fgdppppppdgf&&&&&&&:> ",
" X@&&&&raf&hdppppppdj&fap&&&&:> ",
" X@&&&7tsghkdppppppdkhgyt7&&&:> ",
" X@&,38yddddlpppppplddddy83,&:> ",
" X@*<49uppppppppppppppppu9z<*:> ",
" X@=150ippppppppppppppppie51;:> ",
" X#-26qppppppppppppppppppq62-x> ",
" X#-26wppppppppppppppppppw62-x> ",
" X@;15eippppppppppppppppie51;:> ",
" X@*<49uppppppppppppppppu9zc*:> ",
" X@&,38yddddlpppppplddddy83,&:> ",
" X@&&&7tsgjkdppppppdkjgyt7&&&:> ",
" X@&&&&paf&hdppppppdj&fap&&&&:> ",
" X@&&&&&&&fgdppppppdgf&&&&&&&:> ",
" X@&&&&&&&aydppppppdya&&&&&&&:> ",
" X@&&&&&&&ptyuippiuytp&&&&&&&:> ",
" X@&&&&&&&&789eqwe987&&&&&&&&:> ",
" X@&&&&&&&&&3z5665z3&&&&&&&&&:> ",
" X@&&&&&&&&&,<1221c,&&&&&&&&&:> ",
" X@&&&&&&&&&&*;--;*&&&&&&&&&&:> ",
" o$::::::::::::xx::::::::::::v> ",
" O%>>>>>>>>>>>>>>>>>>>>>>>>>>>b ",
"                                "
};
