/* XPM */
static char *result[] = {
/* columns rows colors chars-per-pixel */
"32 32 207 2 ",
"   c #060606",
".  c #121206",
"X  c gray18",
"o  c #3D3D28",
"O  c #38382C",
"+  c #585800",
"@  c #6A6A6A",
"#  c #717165",
"$  c #687171",
"%  c #C51700",
"&  c red",
"*  c #F91200",
"=  c #FF1300",
"-  c #FA2700",
";  c #F0350A",
":  c #C82424",
">  c #C92626",
",  c #C83924",
"<  c #BF7B00",
"1  c #CD5000",
"2  c #C6401E",
"3  c #E64A00",
"4  c #FF4400",
"5  c #FF4C00",
"6  c #EC5200",
"7  c #F45000",
"8  c #C67500",
"9  c #C57800",
"0  c #D27200",
"q  c #DE7B00",
"w  c #FF6300",
"e  c #FF6B00",
"r  c #FF7900",
"t  c #FE423E",
"y  c #935151",
"u  c #925651",
"i  c #A46969",
"p  c #D24C4C",
"a  c #75AC51",
"s  c #6EBF51",
"d  c #43BD7E",
"f  c #7CD65A",
"g  c #5CD67A",
"h  c #73DC69",
"j  c #BFBF00",
"k  c #BBBB0C",
"l  c #B6B611",
"z  c #B5922A",
"x  c #ABAB28",
"c  c #C08900",
"v  c #C28900",
"b  c #C3820E",
"n  c #FF8D00",
"m  c #FF9200",
"M  c #C6AA00",
"N  c #D8BD00",
"B  c #EDB600",
"V  c #C0C000",
"C  c #C1C100",
"Z  c #CACA00",
"A  c #CBCB00",
"S  c #CCCC00",
"D  c #CDCD00",
"F  c #CECE04",
"G  c #D1D100",
"H  c #D4D401",
"J  c #D6D600",
"K  c #D7D700",
"L  c #D7D703",
"P  c #D1D104",
"I  c #D8D800",
"U  c #DADA00",
"Y  c #DBDB00",
"T  c #DEDA00",
"R  c #DDDD00",
"E  c #DEDE00",
"W  c #DBDB08",
"Q  c #C3C313",
"!  c #E2D400",
"~  c #E1D600",
"^  c #ECDE00",
"/  c #F4D500",
"(  c #F5D500",
")  c #DFF718",
"_  c #E4E400",
"`  c #EBEB00",
"'  c #E4E40E",
"]  c #F1F100",
"[  c #F2F200",
"{  c #F3F300",
"}  c #F5F500",
"|  c #F6F600",
" . c #F7F700",
".. c #FDF700",
"X. c #FFF700",
"o. c #F8F800",
"O. c #FAFA00",
"+. c #FCFC00",
"@. c #FDFD00",
"#. c #FEFE00",
"$. c yellow",
"%. c #FFFF01",
"&. c #FAFA05",
"*. c #FFFF04",
"=. c #F2FC0A",
"-. c #E5E512",
";. c #E0E01F",
":. c #EBEB1A",
">. c #FFFF12",
",. c #FBFB1B",
"<. c #C8C824",
"1. c #DDDD22",
"2. c #C6C639",
"3. c #E5E52F",
"4. c #F3F320",
"5. c #F6F623",
"6. c #FFFF23",
"7. c #F1F12A",
"8. c #E5E539",
"9. c #F9F935",
"0. c #9D9D45",
"q. c #979752",
"w. c #91915E",
"e. c #AAAA4E",
"r. c #A2A25E",
"t. c #858575",
"y. c #82827D",
"u. c #8D8D79",
"i. c #98987D",
"p. c #D6D05C",
"a. c #D9D95C",
"s. c #FFDA57",
"d. c #E8E845",
"f. c #FFFF4C",
"g. c #FCFC51",
"h. c #E4E467",
"j. c #E2E26D",
"k. c #FFFF66",
"l. c #F8F86E",
"z. c #FFFF73",
"x. c #FFFF77",
"c. c #FFFF78",
"v. c #FDFD7A",
"b. c #FFFF7B",
"n. c #1DBFA2",
"m. c #00BFBF",
"M. c #31ACA2",
"N. c #16C5AE",
"B. c #21C7A6",
"V. c #0FC3C3",
"C. c #34CCCC",
"Z. c #4AD2D2",
"A. c #808080",
"S. c #818181",
"D. c #838383",
"F. c #868686",
"G. c #97978C",
"H. c #909090",
"J. c #929292",
"K. c gray58",
"L. c #9A9A9A",
"P. c #B9B989",
"I. c #ACACAC",
"U. c #B7B7B3",
"Y. c #B7B7B7",
"T. c #BFBFB3",
"R. c gray73",
"E. c #BBBBBB",
"W. c #DBDB85",
"Q. c #E7E794",
"!. c #E6E69C",
"~. c #C8C8A2",
"^. c #CBCBAC",
"/. c #CDCDBD",
"(. c #FFFFA3",
"). c #EEEEB9",
"_. c #8FE3E3",
"`. c #C5C5C5",
"'. c #CACACA",
"]. c #CBCBCB",
"[. c #CDCDCD",
"{. c #D0D0C4",
"}. c gray85",
"|. c gray87",
" X c #FFC7C7",
".X c #FFFFC2",
"XX c #F5F5CB",
"oX c #FFFFC8",
"OX c #EEEED3",
"+X c #E5E5DD",
"@X c #F3F3D1",
"#X c #FFFFD8",
"$X c #C3F0F0",
"%X c #C9F1F1",
"&X c gray89",
"*X c #E7E7E7",
"=X c #FAEBEB",
"-X c #FAECEC",
";X c #FAFAEB",
":X c #F3F3F2",
">X c gray96",
",X c #FCFCF4",
"<X c gray98",
"1X c #FBFEFE",
"2X c #FEFCFC",
"3X c white",
"4X c None",
/* pixels */
"4X4X4X4X4X4X4X4X4X4X4X4X4X4X4X4X4X4X4X4X4X4X4X4X4X4X4X4X4X4X4X4X",
"4X4X4X4X4X4X4X4X4X4X4X4X4X4X4X4X4X4X4X4X4X4X4X4X4X4X4X4X4X4X4X4X",
"4X4X4X4X4X4X4X4X4X4X4X4X4X4X4X4X4X4X4X4X4X4X4X4X4X4X4X4X4X4X4X4X",
"4X4X4X4X4X4X4X4X4X4X%X$X_.m.m.m.m.m.m.m.m.m.m.4X4X4X4X4X4X4X4X4X",
"4X4X4X4X4X4X4X4X4X1XZ.m.m.m.m.m.m.m.m.m.m.m.m.m.4X4X4X4X4X4X4X4X",
"4X4X4X4X4X4X4X4X4XC.V.m.m.m.m.m.m.m.m.m.m.m.m.m.4X4X4X4X4X4X4X4X",
"4X4X4X4Xm.m.m.m.m.m.m.m.n.s s s s a u y y $ m.m.4X4X4X4X4X4X4X4X",
"4X4X4Xm.m.m.m.B.g g g g f J J J D M 3 * & , d M.4X4X4X4X4X4X4X4X",
"4X4X4Xm.m.m.N.h $.$.$.$.$.$.$.O.' <.<.; = 6 k i.4X4X4X4X4X4X4X4X",
"4X4X4X4X4X4X) =.$.$.$.$.$.$.$.Y a.;X;Xt r ^ Q OXI.A.4X4X4X4X4X4X",
"4X4X4X4X4X$.x.z.$.$.$.$.$.@.U j.@X3X3X Xs.9.).,X*X}.4X4X4X4X4X4X",
"4X4X4X4X4Xl.oX(.$.$.$.$.$.+.Z !.*XY.F.|.b.f.<X'.L.D.4X4X4X4X4X4X",
"4X4X4X4XP XX#Xc.$.$.$.$.$.+.Z !.[.@   E.b.f.>XJ.X o w.4X4X4X4X4X",
"4X4X4X4X*..Xk.$.$.$.$.$.$.+.S Q.{.# . T.v.g.:XG.O + j 4X4X4X4X4X",
"4X4X4X4X%.6.>.$.$.$.$.$.$.#.| ,.5.-.H 4.h.^./.3.W A j 4X4X4X4X4X",
"4X4X4X4X$.$.$.$.$.$.m w n $.$.$.$.$.$.2.P.].+XW.7._ l y.4X4X4X4X",
"4X4X4X4X$.$.$.$.$.$.5 & 4 $.$.$.$.$.$.r.K.R.&X`.d._ l y.4X4X4X4X",
"4X4X4X4X$.$.$.$.$.$.e - 7 / ..$.$.$.$.e.t.H.U.~.8.E j 4X4X4X4X4X",
"4X4X4X4X$.$.$.$.$.$.X.~ v % ( $.$.$.$.F 0.S.u.:.L C j 4X4X4X4X4X",
"4X4X4X4XG } $.$.$.$.$. .! c 1 B $.$.$.{ -.1.;.&.J x w.4X4X4X4X4X",
"4X4X4X4X4Xo.$.$.$.$.$.$. .T 9 0 q q q q q q q q z q.4X4X4X4X4X4X",
"4X4X4X4X4X$.$.$.$.$.$.$.$.@.U 8 2 p p p p p p p i 4X4X4X4X4X4X4X",
"4X4X4X4X4X4X$.$.$.$.$.$.$.$.$.I p.=X=X=X=X=X-X2X4X4X4X4X4X4X4X4X",
"4X4X4X4X4X4X4X4X$.$.$.$.$.$.$.I b : : : : : > 4X4X4X4X4X4X4X4X4X",
"4X4X4X4X4X4X4X4X4XK { $.$.$.$.] N < < < < < < 4X4X4X4X4X4X4X4X4X",
"4X4X4X4X4X4X4X4X4Xj R _ ` $.$.$.] U U U S j j 4X4X4X4X4X4X4X4X4X",
"4X4X4X4X4X4X4X4X4X4Xj j D [ [ [ [ [ [ [ Y j 4X4X4X4X4X4X4X4X4X4X",
"4X4X4X4X4X4X4X4X4X4X4X4Xj V V V V V V V 4X4X4X4X4X4X4X4X4X4X4X4X",
"4X4X4X4X4X4X4X4X4X4X4X4X4X4X4X4X4X4X4X4X4X4X4X4X4X4X4X4X4X4X4X4X",
"4X4X4X4X4X4X4X4X4X4X4X4X4X4X4X4X4X4X4X4X4X4X4X4X4X4X4X4X4X4X4X4X",
"4X4X4X4X4X4X4X4X4X4X4X4X4X4X4X4X4X4X4X4X4X4X4X4X4X4X4X4X4X4X4X4X",
"4X4X4X4X4X4X4X4X4X4X4X4X4X4X4X4X4X4X4X4X4X4X4X4X4X4X4X4X4X4X4X4X"
};
